<svg width="201" height="81" viewBox="0 0 201 81" fill="none" xmlns="http://www.w3.org/2000/svg">
<g clip-path="url(#clip0_6257_3656)">
<path d="M142.312 42.1717C143.378 42.1717 144.441 42.1807 145.507 42.1687C146.606 42.1568 146.6 42.1478 146.621 43.2822C146.632 43.8292 146.667 44.3748 146.688 44.9218C146.696 45.1221 146.711 45.3537 146.445 45.3911C146.211 45.424 146.197 45.2043 146.137 45.0444C145.604 43.6155 145.32 43.4048 143.819 43.351C143.102 43.3256 142.387 43.2688 141.664 43.3211C141.147 43.3584 140.973 43.5722 140.976 44.0624C140.982 45.3313 140.964 46.6002 140.958 47.8692C140.958 48.177 140.972 48.5208 141.337 48.594C142.256 48.7764 143.16 49.0858 144.115 49.02C144.716 48.9782 145.239 48.7883 145.426 48.1202C145.474 47.9484 145.56 47.7645 145.782 47.8333C145.988 47.8976 145.972 48.0993 145.964 48.2757C145.921 49.1949 145.882 50.1141 145.832 51.0317C145.814 51.3606 145.776 51.7103 145.335 51.7342C144.847 51.7611 144.96 51.3845 144.944 51.1035C144.911 50.4952 144.522 50.1858 143.987 50.1454C143.148 50.0812 142.304 50.1051 141.46 50.1021C141.076 50.1021 140.952 50.3502 140.952 50.694C140.955 52.3604 140.96 54.0284 140.961 55.6949C140.961 56.1313 141.201 56.3316 141.606 56.3481C142.77 56.3959 143.936 56.4661 145.091 56.2225C146.006 56.0282 146.429 55.3556 146.748 54.562C146.84 54.3348 146.865 53.9328 147.256 54.0733C147.613 54.2018 147.442 54.5321 147.387 54.7877C147.23 55.5171 147.041 56.2404 146.913 56.9743C146.831 57.4436 146.582 57.6005 146.146 57.5796C145.75 57.5617 145.35 57.5886 144.955 57.5512C142.849 57.3479 140.744 57.5407 138.639 57.5766C138.415 57.5796 138.192 57.5811 137.97 57.5677C137.786 57.5557 137.619 57.4899 137.614 57.2672C137.609 57.0864 137.737 56.9937 137.894 56.9758C138.871 56.8667 138.995 56.0865 139.138 55.3541C139.319 54.423 139.328 53.4769 139.327 52.5293C139.327 49.7927 139.334 47.0561 139.345 44.3195C139.348 43.6021 139.246 42.9668 138.417 42.7442C138.245 42.6978 138.086 42.5738 138.153 42.363C138.217 42.1568 138.424 42.1702 138.594 42.1687C139.833 42.1642 141.073 42.1672 142.314 42.1672C142.314 42.1702 142.314 42.1717 142.314 42.1747L142.312 42.1717Z" fill="#BDA178"/>
<path d="M155.565 50.0244C155.623 51.4622 155.465 53.4784 155.657 55.4901C155.723 56.1702 155.915 56.6993 156.633 56.9025C156.822 56.9564 157.044 57.0415 156.955 57.3061C156.891 57.4959 156.693 57.5228 156.514 57.5064C155.25 57.3868 153.988 57.3958 152.725 57.5019C152.546 57.5168 152.354 57.4959 152.327 57.2672C152.3 57.0386 152.487 56.9743 152.659 56.9429C153.559 56.78 153.774 56.1508 153.765 55.3511C153.719 51.5459 153.674 47.7421 153.641 43.9368C153.637 43.4332 153.448 43.1955 152.938 43.2194C152.642 43.2344 152.342 43.2149 152.046 43.2344C150.898 43.3061 150.426 43.7097 150.106 44.8306C150.031 45.0922 150.069 45.5764 149.69 45.5047C149.264 45.424 149.479 44.9711 149.503 44.6767C149.556 44.0086 149.657 43.342 149.702 42.6739C149.73 42.2449 149.85 42.088 150.334 42.1119C153.306 42.2629 156.281 42.2778 159.254 42.1059C159.623 42.085 159.826 42.1508 159.848 42.5484C159.893 43.342 159.952 44.1356 159.994 44.9293C160.004 45.1191 160.033 45.3657 159.747 45.3836C159.526 45.3986 159.49 45.1923 159.428 45.0309C158.799 43.4167 157.808 42.8981 156.067 43.2314C155.541 43.333 155.566 43.7037 155.565 44.0773C155.56 45.8679 155.563 47.6599 155.563 50.0244H155.565Z" fill="#BDA178"/>
<path d="M118.38 57.5841C117.215 57.5841 116.049 57.5886 114.884 57.5811C114.673 57.5811 114.378 57.6693 114.287 57.4137C114.174 57.0984 114.519 57.0954 114.691 56.9952C115.23 56.6814 115.351 56.1313 115.43 55.5963C115.534 54.8848 115.604 54.1615 115.604 53.444C115.604 50.4115 115.711 47.3789 115.491 44.3479C115.437 43.6051 115.471 42.8607 114.478 42.7232C114.357 42.7068 114.247 42.6111 114.266 42.4602C114.29 42.2734 114.445 42.2106 114.592 42.2285C115.606 42.3496 116.623 42.2868 117.636 42.3346C117.983 42.3511 118.04 42.6007 117.852 42.8622C117.572 43.2538 117.551 43.6917 117.55 44.1431C117.542 47.9469 117.609 51.7507 117.431 55.5529C117.383 56.5618 117.493 56.641 118.526 56.6545C119.145 56.6619 119.762 56.6036 120.38 56.5693C121.477 56.508 122.283 56.085 122.714 55.0373C122.79 54.852 122.9 54.6352 123.14 54.7115C123.421 54.8011 123.377 55.0552 123.314 55.2779C123.232 55.5649 123.12 55.8429 123.046 56.1313C122.645 57.7096 122.933 57.5916 121.057 57.5766C120.164 57.5692 119.272 57.5766 118.38 57.5766V57.5841Z" fill="#BDA178"/>
<path d="M106.62 57.5826C105.479 57.5826 104.338 57.5856 103.195 57.5796C102.981 57.5796 102.709 57.6439 102.604 57.3838C102.51 57.1507 102.742 57.0445 102.882 56.9115C103.456 56.3645 103.523 55.6247 103.557 54.9117C103.728 51.3561 103.751 47.7974 103.533 44.2418C103.498 43.6589 103.514 43.0102 102.776 42.7651C102.626 42.7158 102.528 42.5798 102.59 42.4109C102.65 42.2465 102.812 42.2136 102.963 42.23C104.102 42.3571 105.239 42.3526 106.379 42.239C106.529 42.224 106.692 42.2719 106.71 42.4602C106.727 42.6515 106.573 42.7262 106.422 42.7352C105.612 42.777 105.509 43.33 105.469 43.9802C105.23 47.9588 105.407 51.9435 105.334 55.9236C105.326 56.4303 105.564 56.638 106.054 56.653C107.073 56.6829 108.089 56.653 109.095 56.4751C109.864 56.3376 110.391 55.8907 110.695 55.1688C110.789 54.9461 110.875 54.6218 111.191 54.7339C111.565 54.8669 111.374 55.1853 111.301 55.4364C110.886 56.8762 109.921 57.5881 108.405 57.5721C107.809 57.5662 107.213 57.5721 106.619 57.5721V57.5871L106.62 57.5826Z" fill="#BDA178"/>
<path d="M112.671 61.7406C115.698 62.8032 118.779 63.6537 121.954 64.1454C127.958 65.075 133.956 65.1154 139.96 64.1334C143.008 63.6342 145.963 62.8092 148.859 61.7525C149.206 61.6255 149.534 61.4446 149.871 61.2892C149.984 61.2145 150.119 61.2055 150.183 61.3176C150.252 61.4387 150.148 61.5343 150.037 61.5956C146.219 63.8196 142.021 64.8434 137.706 65.4547C132.264 66.2259 126.835 66.0316 121.44 65.0003C118.293 64.398 115.218 63.5431 112.347 62.0634C112.25 61.9887 112.136 61.8885 112.219 61.7705C112.337 61.6031 112.511 61.6629 112.668 61.7406H112.671Z" fill="#BDA178"/>
<path d="M70.8119 15.8682C70.7508 16.0296 70.6912 16.1925 70.6286 16.3524C70.3828 16.9891 69.909 17.0922 69.4457 16.608C69.0335 16.1775 68.6759 16.199 68.373 16.6723C67.7696 17.6168 66.2008 17.7005 65.3262 16.8157C64.9493 16.4331 64.6841 15.9055 64.2535 16.8247C64.0435 17.2731 63.446 17.1505 63.0483 16.9323C62.713 16.7485 62.5223 16.7365 62.351 17.1027C62.3033 17.2028 62.1737 17.2731 62.0694 17.3344C61.5286 17.6527 59.7706 17.2253 59.4324 16.6977C59.3266 16.5333 59.2655 16.2852 59.0465 16.2807C58.7352 16.2732 58.9095 16.6708 58.7068 16.7799C58.6473 16.3898 58.3567 16.3375 58.0424 16.333C57.6252 16.327 57.2066 16.3315 56.703 16.3315C57.6565 15.5677 59.0361 15.7635 59.638 16.6752C59.7825 16.8949 59.9181 17.1057 60.2235 16.9936C60.5394 16.877 60.7897 17.0041 61.0638 17.149C61.624 17.448 62.0858 17.2686 62.2303 16.6723C62.3555 16.1626 62.6251 16.4062 62.8203 16.5362C63.1138 16.7335 63.3716 16.9577 63.7649 16.8337C63.9898 16.7619 64.2088 16.7036 64.1746 16.4032C64.0941 15.6828 64.5128 15.9847 64.8137 16.0968C65.1281 16.2149 65.2979 16.5123 65.5303 16.732C65.7657 16.9532 66.0697 17.1341 66.4049 16.9816C66.6462 16.871 66.7088 16.602 66.7401 16.3494C66.758 16.1985 66.7401 15.9698 66.5866 15.9817C66.1099 16.0176 66.162 15.7934 66.3051 15.502C66.4153 15.2778 66.542 15.0058 66.8354 15.0641C67.1632 15.1298 67.2154 15.4467 67.1871 15.7217C67.1498 16.0909 67.053 16.454 66.9844 16.8217C66.9531 16.9906 66.8921 17.1819 67.1021 17.2791C67.2675 17.3553 67.3748 17.2238 67.485 17.1236C67.8918 16.756 68.4788 16.5078 68.2389 15.7576C68.1599 15.5094 68.3834 15.4796 68.5711 15.5707C68.9346 15.7471 69.2267 16.0101 69.4844 16.321C69.9611 16.8949 70.2383 16.8456 70.496 16.1476C70.5556 15.9877 70.5377 15.774 70.8089 15.8682H70.8119Z" fill="#BDA178"/>
<path d="M70.5212 24.5608C70.2575 24.8029 70.0981 25.0271 70.5987 25.1781C70.843 25.2513 71.1038 25.3738 71.1082 25.6518C71.1142 26.0001 70.7373 25.897 70.5451 26.021C70.4631 26.0748 70.3588 26.0987 70.2814 26.1585C69.5811 26.6966 68.9182 26.6383 68.2865 26.0404C68.0913 25.2124 68.3446 24.7192 69.1089 24.4487C69.3323 24.3695 69.6154 24.4038 69.7271 24.1154C70.0251 24.2051 70.1741 24.5593 70.5197 24.5593L70.5212 24.5608Z" fill="#BDA178"/>
<path d="M72.2793 22.4549C72.6205 22.1231 73.0555 22.1694 73.4756 22.1545C73.7289 22.3248 73.9777 22.2127 74.2265 22.138C75.0519 22.5789 75.9831 22.7867 76.7771 23.2993C76.9649 23.4204 77.233 23.537 77.0855 23.797C76.947 24.0406 76.7324 23.8254 76.5701 23.7432C76.1946 23.5534 75.8311 23.3382 75.4542 23.1499C74.5439 22.694 73.6023 22.4369 72.5862 22.7702C72.8231 22.3323 72.4223 22.5206 72.2793 22.4549Z" fill="#BDA178"/>
<path d="M83.3145 36.7971C83.8569 37.1573 84.2532 37.7178 85.0606 37.6655C85.4718 37.6386 85.9337 37.9794 86.2898 38.3052C86.1006 38.2529 85.9039 38.2185 85.7236 38.1438C84.7523 37.7402 83.9999 38.0092 83.5306 38.9359C83.4352 39.1257 83.3682 39.3066 83.6006 39.45C83.7466 39.5397 84.0759 39.5547 83.8196 39.8357C83.6527 40.018 83.398 39.9851 83.2028 39.8461C82.9197 39.6458 82.8825 39.3439 82.9987 39.0465C83.0881 38.8208 83.1969 38.5593 83.3786 38.4188C84.0893 37.8702 83.9448 37.4084 83.2982 36.9555C83.252 36.9152 83.2386 36.8778 83.2594 36.8449C83.2788 36.8136 83.2967 36.7971 83.3145 36.7971Z" fill="#BDA178"/>
<path d="M46.8119 26.0404C46.9579 26.3289 47.1099 26.0972 47.2588 26.0449C46.4871 27.3183 45.7154 28.5932 44.9421 29.8666L44.6665 29.7007C45.2654 28.4169 45.8301 27.1151 46.8119 26.0389V26.0404Z" fill="#BDA178"/>
<path d="M64.8375 59.6586C64.7526 59.0473 64.6572 58.4375 64.5842 57.8247C64.4889 57.0281 64.5336 56.2644 64.9418 55.5275C65.2264 55.0149 65.3798 54.4305 65.5958 53.879C65.6689 53.6936 65.7851 53.4709 65.6093 53.329C65.3962 53.1556 65.2964 53.4919 65.1146 53.5233C65.2711 52.9523 65.7433 52.5473 65.8715 51.9494C66.0875 52.5577 66.0443 53.169 65.8596 53.6921C65.5988 54.432 65.4439 55.2166 65.0059 55.8982C64.4367 56.78 64.8465 57.7321 64.8956 58.6557C64.9135 58.995 65.0714 59.3373 64.8375 59.6616V59.6586Z" fill="#BDA178"/>
<path d="M93.8612 31.554C95.0859 31.3284 96.2748 31.2133 97.2223 32.2984C97.6752 32.8185 97.711 33.3386 97.3519 34.0874C97.2372 33.4656 97.3013 32.9784 96.9139 32.5539C96.0796 31.6377 95.0948 31.6691 94.034 31.8784C93.9119 31.8051 93.8701 31.6871 93.8612 31.554Z" fill="#BDA178"/>
<path d="M81.6639 29.7859C81.3093 29.9249 81.056 30.1685 81.4613 30.4555C81.8412 30.7245 81.8025 31.0608 81.8293 31.4165C81.7741 31.4703 81.716 31.4748 81.6535 31.43C81.3987 31.2237 81.2259 30.9577 81.1082 30.6558C80.9726 30.3105 81.211 29.8562 80.7536 29.5961C80.2009 29.2822 79.6362 29.0969 78.9971 29.2045C79.149 28.9534 79.2995 28.7023 79.4515 28.4512C80.2232 28.5947 81.0128 28.6949 81.5283 29.4078C81.6162 29.5288 81.7354 29.6185 81.6609 29.7889L81.6639 29.7859Z" fill="#BDA178"/>
<path d="M69.7287 24.1154C69.8777 24.5593 69.4874 24.5055 69.2728 24.6011C68.6516 24.8821 68.1703 25.2513 68.288 26.0389C68.2046 25.9313 68.1197 25.8222 68.0273 25.7027C67.8903 25.9254 67.8679 26.1884 67.6578 26.3394C67.8888 24.8253 68.2687 24.4173 69.7287 24.1139V24.1154Z" fill="#BDA178"/>
<path d="M112.671 61.7406C112.478 61.763 112.307 61.8064 112.35 62.0634C111.558 61.7451 110.777 61.4073 110.101 60.8707C110.101 60.6301 110.196 60.5778 110.394 60.7168C111.123 61.1263 111.972 61.2668 112.672 61.7406H112.671Z" fill="#BDA178"/>
<path d="M90.9098 35.7569C90.4643 35.2442 91.2554 34.8691 91.0618 34.3848C91.6637 34.5268 92.1628 34.2234 92.8347 33.8811C92.5814 34.5567 92.2045 34.8048 91.6964 34.8721C91.1675 34.9423 90.8949 35.2128 90.9098 35.7554V35.7569Z" fill="#BDA178"/>
<path d="M52.3794 65.7775C52.6609 65.8358 53.1005 65.791 53.1377 66.1751C53.1735 66.5398 52.7712 66.5174 52.512 66.4905C52.211 66.4591 51.7596 66.5218 51.7209 66.1228C51.6911 65.797 52.0799 65.7925 52.3779 65.7775H52.3794Z" fill="#BDA178"/>
<path d="M58.1108 67.302C58.2151 67.2467 58.3209 67.1914 58.4252 67.1346C59.0792 67.4036 59.6945 67.7803 60.4231 67.861C59.5202 68.2062 58.7902 67.861 58.1108 67.3005V67.302Z" fill="#BDA178"/>
<path d="M82.2702 33.0531C82.4579 33.1667 82.6755 33.2489 82.8259 33.3984C83.0613 33.633 83.5128 33.9439 83.3101 34.2189C83.0434 34.5821 82.8304 33.9947 82.5503 33.9364C82.4624 33.9185 82.3641 33.9529 82.2717 33.9633C81.9857 33.6599 82.6412 33.3565 82.2717 33.0531H82.2702Z" fill="#BDA178"/>
<path d="M61.1024 15.4362C61.2425 14.9505 61.6239 14.9819 61.9934 15.0401C62.2005 15.073 62.5014 15.1313 62.4493 15.4063C62.3941 15.6978 62.1409 15.5438 61.9725 15.4736C61.6641 15.345 61.5926 15.496 61.5509 15.7665C61.5181 15.9847 61.7163 16.3524 61.2455 16.3479C61.2678 16.0326 61.1874 15.7336 61.101 15.4347L61.1024 15.4362Z" fill="#BDA178"/>
<path d="M93.8612 31.554C93.9804 31.5974 94.1622 31.5032 94.2084 31.6811C94.2203 31.7289 94.0951 31.8111 94.0326 31.8784C93.6616 32.1579 93.5737 32.669 93.1104 33.098C93.1282 32.3297 93.3055 31.847 93.8597 31.554H93.8612Z" fill="#BDA178"/>
<path d="M58.1437 21.1277C58.2435 21.0574 58.3329 20.9513 58.4431 20.9214C58.8141 20.8183 59.1806 20.6404 59.5784 20.772C59.6127 20.7824 59.6484 20.9304 59.6231 20.9573C59.343 21.2517 58.9571 21.2173 58.5996 21.2741C58.4476 21.2263 58.2956 21.177 58.1437 21.1292V21.1277Z" fill="#BDA178"/>
<path d="M71.3705 14.103C71.2036 14.668 71.8889 14.7352 71.9798 15.1507C71.9306 15.2434 71.88 15.2449 71.8249 15.1552C71.509 14.8488 71.1857 14.5484 70.8818 14.2301C70.7581 14.1015 70.4974 13.958 70.6732 13.7578C70.8341 13.5739 71.0278 13.7847 71.1842 13.8833C71.2617 13.9326 71.3109 14.0283 71.372 14.103H71.3705Z" fill="#BDA178"/>
<path d="M71.6774 16.3315C71.7668 16.596 72.1319 16.7335 72.0246 17.0818C72.0142 17.1147 71.889 17.1431 71.8309 17.1251C71.375 16.9921 71.2826 16.611 71.229 16.2074C71.3288 16.1476 71.4286 16.0879 71.5285 16.0281C71.6566 16.0908 71.5821 16.2523 71.676 16.3315H71.6774Z" fill="#BDA178"/>
<path d="M150.039 61.5956C150.088 61.4357 150.021 61.34 149.872 61.2877C150.271 61.0889 150.671 60.8902 151.07 60.6914C151.238 60.6107 151.38 60.5868 151.372 60.8483C150.94 61.1203 150.574 61.5089 150.039 61.5956Z" fill="#BDA178"/>
<path d="M63.0482 14.3676C63.2792 14.3765 63.3268 14.5335 63.2955 14.7173C63.2687 14.8742 63.2762 15.0984 63.0557 15.1104C62.8397 15.1223 62.6817 14.9714 62.6788 14.7532C62.6758 14.535 62.8337 14.4124 63.0482 14.3676Z" fill="#BDA178"/>
<path d="M69.1178 14.7263C69.5916 15.0222 69.8493 15.221 69.8642 15.6051C69.8687 15.7157 69.754 15.7994 69.6646 15.7486C69.3502 15.5707 69.2221 15.2748 69.1178 14.7263Z" fill="#BDA178"/>
<path d="M151.372 60.8483C151.271 60.796 151.171 60.7437 151.07 60.6914C151.472 60.4223 151.877 60.1638 152.502 59.974C152.163 60.5031 151.794 60.7093 151.372 60.8483Z" fill="#BDA178"/>
<path d="M110.393 60.7183C110.296 60.7691 110.197 60.8199 110.101 60.8722C109.709 60.7138 109.369 60.4866 108.959 60.0158C109.61 60.1907 110.031 60.3924 110.393 60.7198V60.7183Z" fill="#BDA178"/>
<path d="M48.1542 25.1556C48.4566 24.8089 48.8902 24.6774 49.1598 25.0331C49.4876 25.465 49.0302 25.7624 48.7352 26.0419C48.7501 25.9971 48.768 25.9523 48.7799 25.9059C48.8425 25.6429 49.1464 25.3828 48.8961 25.1153C48.6786 24.8821 48.406 25.1452 48.1542 25.1556Z" fill="#BDA178"/>
<path d="M58.1123 66.8268C57.9514 66.4217 58.1511 66.2289 58.5131 66.3201C58.9943 66.4411 59.5307 66.4606 59.918 66.8492C59.5426 66.761 59.1671 66.6728 58.7917 66.5861C58.5146 66.5219 58.2598 66.5219 58.1123 66.8282V66.8268Z" fill="#B4B4B4"/>
<path d="M72.5891 13.1928C72.0766 13.3393 72.0215 13.6023 72.4148 13.9476C72.5653 14.0806 72.6919 14.2106 72.7202 14.4154C72.4059 14.1224 71.8323 14.0133 72.0006 13.3781C72.1034 12.991 72.2673 12.8535 72.5876 13.1928H72.5891Z" fill="#BDA178"/>
<path d="M81.6549 31.4285C81.713 31.424 81.7711 31.4195 81.8292 31.415C82.6457 32.3492 81.342 31.6781 81.3748 32.0189C81.1528 31.6721 81.4717 31.5824 81.6534 31.4285H81.6549Z" fill="#BDA178"/>
<path d="M67.9603 54.2676C67.6623 54.5964 67.3644 54.6143 67.0679 54.2676C67.3658 53.8431 67.6638 53.87 67.9603 54.2676Z" fill="#BDA178"/>
<path d="M67.6667 26.3319C66.8652 26.716 66.8726 25.9612 66.6149 25.5801C66.743 25.4516 66.9575 25.2139 66.956 25.6025C66.9546 26.1406 67.2749 26.2422 67.6667 26.3319Z" fill="#BDA178"/>
<path d="M61.1025 15.4362C61.6895 15.6544 61.3557 16.0191 61.247 16.3494C61.0324 16.0714 60.8864 15.783 61.1025 15.4362Z" fill="#AEAEAE"/>
<path d="M71.6774 16.3315C71.6282 16.2298 71.5791 16.1297 71.5299 16.0281C71.6163 15.7336 71.8547 15.49 71.8234 15.1552C71.8756 15.1552 71.9262 15.1522 71.9784 15.1507C72.032 15.4302 72.245 15.5722 72.4581 15.7127C72.4626 15.9519 72.4 16.1432 72.1303 16.194C72.023 16.1163 72.0096 15.8846 71.8279 15.9519C71.6774 16.0072 71.7117 16.197 71.6789 16.3315H71.6774Z" fill="#BDA178"/>
<path d="M83.3146 36.7971C83.3101 36.8509 83.3042 36.9032 83.2982 36.957C83.0554 36.7717 82.9272 36.5146 82.8706 36.2232C82.8408 36.0677 82.7097 35.8465 82.8915 35.7643C83.1209 35.6597 83.2028 35.9108 83.2997 36.0707C82.8691 36.3218 83.2595 36.5565 83.3131 36.7986L83.3146 36.7971Z" fill="#BDA178"/>
<path d="M81.6638 29.7859C81.1617 29.3121 80.6254 28.9071 79.8969 28.8593C79.648 28.8428 79.5035 28.6904 79.4529 28.4483C80.1174 28.1075 80.6954 28.2629 81.199 28.7696C81.5416 29.1148 81.8664 29.4795 82.221 29.8577C81.9424 30.0714 81.8202 29.8472 81.6638 29.7844V29.7859Z" fill="#BDA178"/>
<path d="M80.9026 23.2171C81.4136 23.3128 81.643 23.7238 81.8963 24.1408C82.0244 23.8359 81.8337 23.5908 81.8323 23.3277C82.0006 23.4742 82.1317 23.6491 82.1853 23.8703C82.2479 24.1273 82.2122 24.4128 81.9723 24.513C81.6192 24.6609 81.6922 24.2932 81.6281 24.1229C81.4836 23.7387 81.1276 23.5325 80.9026 23.2171Z" fill="#BDA178"/>
<path d="M72.1304 16.1955C72.1557 15.9773 72.2481 15.8054 72.4581 15.7142C72.7636 15.8756 73.0615 16.1073 72.7546 16.4421C72.4864 16.7335 72.2928 16.4062 72.1304 16.1955Z" fill="#BDA178"/>
<path d="M71.9069 26.5307C71.7102 26.4814 71.6938 26.3379 71.7326 26.1869C71.7877 25.9732 71.8592 25.743 72.111 25.7012C72.3047 25.6698 72.3657 25.8327 72.33 25.9881C72.2749 26.2288 72.1691 26.4485 71.9069 26.5292V26.5307Z" fill="#BDA178"/>
<path d="M83.3012 36.0692C83.4681 36.2456 83.6811 36.5296 83.8971 36.3667C84.1743 36.1574 83.8227 35.9557 83.7303 35.7539C83.5172 35.2861 83.0718 35.0365 82.7276 34.6942C82.5131 34.4805 82.3268 34.2682 82.2717 33.9633C82.2077 33.9021 82.2091 33.8019 82.2672 33.7795C82.9094 33.5344 82.592 33.2953 82.2702 33.0531C81.9946 32.6884 81.5581 32.4643 81.3748 32.0189C81.2378 31.832 81.2825 31.717 81.5119 31.6781C81.7369 31.6392 81.7711 31.5062 81.6847 31.3179C81.6087 31.1684 81.6296 30.9412 81.5104 30.859C80.9517 30.4794 81.135 30.0221 81.3257 29.5528C81.1901 28.795 80.5301 28.4572 79.6749 28.7083C79.5393 28.9968 79.2414 29.061 78.9985 29.203C78.4056 29.2598 78.0987 28.9325 78.3028 28.4034C78.4637 27.9879 78.7155 27.6083 79.225 27.5321C79.3948 27.5066 79.6168 27.4947 79.5617 27.2451C79.5095 27.0104 79.292 26.9761 79.0834 26.994C78.7035 27.0269 78.4905 27.3437 78.2223 27.5485C77.8305 27.8489 77.6711 27.7144 77.3284 27.3975C76.7742 26.8834 76.9291 26.1062 76.4717 25.5906C76.3585 25.4635 76.2945 25.2513 76.1127 25.2453C75.5153 25.2304 74.8836 25.1317 74.3279 25.2887C73.7617 25.4486 73.3252 25.9552 73.1136 26.5307C72.8723 27.1898 72.3374 27.7802 71.8383 27.8937C70.9638 28.091 70.2129 28.3855 69.4412 28.8383C68.9748 29.1119 68.5428 28.653 68.4802 28.0746C68.6381 27.9207 68.735 28.0313 68.8318 28.0925C69.0896 28.2539 69.3041 28.1777 69.4933 27.973C69.6185 27.837 69.6915 27.677 69.608 27.4962C69.4948 27.2541 69.2594 27.2227 69.0344 27.2406C68.3819 27.2914 67.7502 27.1614 67.123 27.0164C66.3348 26.8356 66.1471 26.2796 66.6134 25.5816C66.9114 25.5248 66.8071 25.7639 66.8548 25.9014C66.9904 26.2915 67.2466 26.4709 67.6668 26.3334L67.6578 26.3423C67.783 26.2078 67.7919 26.0255 67.8202 25.8641C67.9364 25.2094 68.2314 25.3245 68.5949 25.6608C68.9048 26.0673 69.2966 26.1779 69.7674 25.9777C70.0803 25.8446 70.3485 25.7176 70.0907 25.2737C69.8419 24.8462 70.1369 24.6534 70.5213 24.5608C70.7165 24.5115 70.9236 24.4263 70.9817 24.2379C71.2349 23.4294 71.9009 23.0931 72.5847 22.7717C73.2894 22.2277 74.009 22.2845 74.7778 22.6537C75.192 22.8524 75.6538 22.9526 76.0591 23.1813C75.4855 22.8091 74.7793 22.7403 74.1982 22.3831C73.939 22.1664 73.6798 22.3443 73.422 22.3772C73.0406 22.4026 72.6458 22.2277 72.2778 22.4549C71.7027 22.5789 71.1426 22.824 70.5332 22.7C70.2978 22.6522 70.1876 22.7673 70.0565 22.9466C69.6721 23.4772 69.2207 23.5489 68.9733 23.0198C68.4355 21.8705 67.6965 21.1112 66.3765 21.0141C66.1858 21.0006 65.9922 20.7929 65.8327 20.6419C65.4752 20.3026 64.9627 20.2145 64.6722 20.4715C64.0136 21.0559 63.1421 20.8153 62.4597 21.2069C62.418 21.2308 62.3569 21.2607 62.3197 21.2457C61.18 20.8108 60.2056 21.6538 59.1269 21.6568C58.8871 21.6568 58.4386 21.857 58.5981 21.2712C58.6338 21.1934 58.7515 21.0843 58.6502 21.038C58.4833 20.9618 58.2941 20.9932 58.1407 21.1247C56.8534 22.2352 55.1952 22.6731 53.7739 23.5415C53.1825 23.9032 52.3869 24.0735 52.5806 25.0734C52.6133 25.2423 52.439 25.5323 52.2781 25.6429C51.6777 26.0524 51.2904 26.8864 50.2996 26.5441C49.8258 26.3812 49.4131 26.7384 49.0824 27.1106C48.2004 28.106 47.4153 29.1866 46.4215 30.0804C46.3664 30.1297 46.2666 30.2089 46.2785 30.2418C46.6331 31.2357 45.6111 31.3538 45.2401 31.8784C44.6605 32.6974 44.2329 33.5897 43.8262 34.4999C42.6224 37.1962 42.0295 40.0419 41.9639 42.9728C41.9162 45.0593 42.1561 47.1727 42.7059 49.1695C43.0738 50.5086 43.5014 51.8732 44.0393 53.1616C44.3596 53.9313 44.8959 54.6681 45.4263 55.3512C45.7183 55.7278 45.9507 56.1298 46.21 56.5229C47.0905 57.8561 48.2779 58.8829 49.5353 59.838C50.2043 60.3461 51.0311 60.6974 51.2442 61.6554C51.2769 61.8019 51.5213 61.9304 51.6941 62.0141C53.7933 63.02 55.8165 64.2187 58.0215 64.96C59.0107 65.2918 60.1102 65.4338 61.2008 65.519C62.6296 65.6296 64.0524 65.8732 65.4901 65.7686C68.3133 65.5623 70.9966 64.8494 73.5621 63.6178C74.8955 62.9781 76.2095 62.2727 77.6338 61.8288C78.0286 61.7062 78.4652 61.6464 78.6067 61.1338C78.6648 60.9201 78.9047 60.8887 79.1028 60.8618C80.5033 60.6705 81.2601 59.7318 81.7622 58.5242C82.9749 55.6067 84.1772 52.6848 85.3766 49.7613C86.7636 46.376 88.0613 42.9564 89.274 39.5053C89.4424 39.0256 89.7046 38.8373 90.2007 38.8507C92.6336 38.915 92.1122 38.4696 92.8675 40.7773C93.6795 43.2598 94.5227 45.7334 95.3377 48.2159C95.5194 48.7704 95.8174 49.1276 96.3835 49.3668C98.2175 50.1395 99.7581 51.3486 101.129 52.7834C101.208 52.8671 101.325 52.9404 101.272 53.1496C100.598 52.7132 99.9532 52.2723 99.2858 51.8687C98.4976 51.3934 97.6708 50.9929 96.8067 50.6715C96.6458 50.6118 96.4685 50.5131 96.312 50.6342C96.1318 50.7732 96.2569 50.9555 96.312 51.1125C97.2879 53.8282 98.222 56.5618 99.3692 59.2117C99.7014 59.9785 100.11 60.6854 101.071 60.811C101.4 60.8543 101.474 61.1353 101.459 61.4387C101.442 61.7869 101.234 61.9125 100.919 61.9125C98.7092 61.914 96.4998 61.9155 94.2903 61.9155C93.9402 61.9155 93.7227 61.775 93.7167 61.3909C93.7108 61.0127 93.9223 60.8917 94.2635 60.8259C95.9247 60.5016 96.166 60.1488 95.6669 58.5122C94.8535 55.8474 93.9745 53.2019 93.1372 50.5445C92.9897 50.0752 92.6977 49.9227 92.2388 49.9721C89.9802 50.2142 88.0672 51.1917 86.4269 52.7371C86.2675 52.8865 86.117 53.0764 86.0395 53.2766C85.3334 55.109 84.499 56.8966 84.0312 58.8157C83.7198 60.092 84.1027 60.6346 85.3944 60.808C85.5166 60.8244 85.6418 60.8379 85.7654 60.8423C86.1915 60.8558 86.3077 61.1099 86.2928 61.4895C86.2764 61.9125 86.0083 61.9364 85.6775 61.9349C83.6424 61.9229 81.6073 61.9259 79.5706 61.9155C78.9747 61.9125 78.489 62.0888 78.0212 62.4969C75.846 64.398 73.3133 65.5743 70.4826 66.1168C70.0699 66.196 69.6646 66.3171 69.2564 66.4217C69.1343 66.4531 68.9495 66.5218 69.0002 66.6354C69.319 67.3484 68.7275 67.0838 68.4921 67.0883C67.5759 67.1062 66.6566 67.157 65.7404 67.039C65.4782 67.0046 65.1623 67.0076 64.9374 67.1242C64.5053 67.3484 64.1135 67.4156 63.6754 67.172C63.5756 67.1167 63.4013 67.0793 63.3164 67.1301C62.3972 67.6727 61.4824 67.1047 60.5691 67.1376C60.3009 67.1481 60.0864 67.0509 59.9151 66.8477C59.4979 66.5861 59.0078 66.5592 58.5504 66.4277C58.2479 66.341 58.0036 66.4112 58.1094 66.8252C58.2137 66.9284 58.318 67.0315 58.4223 67.1331C58.4312 67.4052 58.2748 67.3618 58.1079 67.3005C58.0215 67.2542 57.8725 67.2213 57.8591 67.16C57.6863 66.3051 57.0501 66.4172 56.4482 66.4695C55.6005 66.5428 54.8868 66.0615 54.0913 65.9046C52.0546 65.5025 50.9864 63.718 49.4876 62.5537C46.8461 60.4986 45.3399 57.6125 43.8873 54.6786C42.6731 52.2274 41.809 49.6567 41.2547 47.0053C40.8123 44.8874 41.0104 42.7292 41.3173 40.562C41.736 37.6147 42.9204 34.9289 43.7636 32.128C44.0303 31.2402 44.4698 30.5153 45.3265 30.046C45.8673 29.7486 46.3098 29.2897 46.4051 28.6022C46.4275 28.4408 46.5094 28.2584 46.6227 28.1433C47.3154 27.4334 48.0261 26.7399 48.7293 26.0404C48.8083 25.9777 48.8694 25.8925 48.8977 25.8028C48.9781 25.5442 49.3774 25.2991 49.075 25.0271C48.7874 24.7685 48.4343 24.921 48.1498 25.1541C47.8518 25.4501 47.5523 25.7475 47.2544 26.0434C47.1411 26.1824 47.0696 26.4126 46.8342 26.3304C46.7121 26.2885 46.718 26.1466 46.8074 26.0374C47.1963 25.3574 47.8399 24.8687 47.9024 23.9345C47.9322 23.4877 48.6459 23.0557 49.0973 22.6746C50.1193 21.8092 51.198 21.0111 52.2006 20.1248C53.0886 19.3386 54.13 18.9396 55.2444 18.6556C55.6064 18.5629 55.9282 18.6631 56.2605 18.7632C56.4601 18.823 56.6627 18.811 56.8132 18.6496C56.9726 18.4792 56.9488 18.2789 56.8236 18.1026C56.405 17.5092 56.8475 17.5765 57.214 17.584C57.2378 17.584 57.2676 17.584 57.287 17.5959C58.2822 18.2371 58.5146 17.5481 58.7023 16.7799C58.9958 16.6065 58.4416 16.2044 58.8573 16.1058C59.273 16.0071 59.4011 16.3808 59.5232 16.6708C59.6931 17.0743 59.9017 17.3015 60.3635 17.0519C60.5989 16.9248 60.7911 17.1087 60.9803 17.2103C61.6016 17.5496 62.1037 17.424 62.3703 16.7933C62.5521 16.3644 62.7622 16.5646 62.9171 16.7455C63.2508 17.1356 63.6397 16.9622 64.0181 16.9129C64.179 16.892 64.2595 16.7888 64.3101 16.6259C64.4829 16.0669 64.8346 15.9459 65.1117 16.4451C65.5631 17.2626 66.4749 16.9861 67.0514 17.4599C67.2615 17.6318 68.2701 16.7709 68.3878 16.3644C68.5919 15.6589 68.6769 15.6365 69.1968 16.1566C69.2847 16.2448 69.386 16.324 69.4456 16.4316C69.5827 16.6797 69.7287 16.9308 70.0639 16.8441C70.4185 16.753 70.5854 16.5019 70.5705 16.1252C70.5645 15.9832 70.569 15.8069 70.8044 15.8682C70.9444 15.9817 71.083 16.0953 71.223 16.2089C71.3199 16.2239 71.4182 16.2687 71.5046 16.1775C71.6476 15.9847 71.664 15.6753 71.9799 15.6544C71.9694 15.6484 72.0052 15.623 71.9962 15.6186C71.9426 15.4646 71.8994 15.3137 71.8875 15.1567C71.6655 14.8548 71.3362 14.6486 71.1381 14.3377C70.9936 14.1105 71.0383 13.9416 71.3631 14.106C71.5582 14.2884 71.737 14.4961 71.9545 14.6486C72.2793 14.8757 72.5952 14.9415 72.7129 14.4184C72.6175 14.2047 72.4611 14.0836 72.2361 13.9969C71.9247 13.8773 72.0409 13.5635 72.0737 13.3482C72.1229 13.0314 72.3583 13.0747 72.5818 13.1958C72.9185 13.4439 73.2135 13.7593 73.6395 13.2541C73.8675 12.9836 74.0627 13.3408 74.237 13.4872C74.4977 13.7055 74.5141 14.0716 74.7107 14.3212C74.8821 14.5394 74.9059 15.0551 75.4363 14.6994C75.6285 14.5708 75.7298 14.8982 75.8356 15.0491C76.2304 15.6096 76.1187 16.2971 76.2825 16.9174C76.3466 17.158 76.3928 17.4031 76.4673 17.6408C76.5164 17.7992 76.5552 18.0189 76.7876 17.9711C76.9619 17.9352 76.9545 17.7499 76.9634 17.6004C76.9723 17.4629 76.8844 17.2761 77.0871 17.2253C77.2494 17.1849 77.3508 17.3329 77.458 17.433C77.7009 17.6587 77.8364 17.9457 77.9601 18.2506C78.2268 18.9082 78.6097 18.9739 79.1505 18.4987C79.3025 18.3641 79.3755 18.0189 79.6451 18.1579C79.8865 18.2819 79.8537 18.5853 79.8314 18.8364C79.8179 18.9844 79.7613 19.1339 79.7762 19.2788C79.8105 19.6271 79.9982 19.9051 80.329 20.0052C80.6388 20.0994 80.8489 19.8767 80.977 19.6211C81.2318 19.1159 81.3853 19.3416 81.5283 19.6839C81.6996 20.0934 81.649 20.5074 81.5715 20.9304C81.5223 21.2024 81.5089 21.5163 81.9633 21.3997C82.1525 21.3504 82.2464 20.8302 82.5175 21.2472C82.6993 21.5282 82.7246 21.9333 82.4669 22.156C81.8993 22.6447 82.3239 22.9885 82.5786 23.3516C82.7395 23.5818 82.887 23.5504 82.9779 23.2575C83.4666 21.6717 83.4576 20.053 83.1314 18.4613C82.896 17.3179 82.7991 17.3388 83.3668 16.4017C83.5128 16.9981 83.6454 17.4838 83.7482 17.9755C83.848 18.4523 83.9552 18.8902 84.8566 18.5151C83.7258 19.802 84.7761 20.609 85.098 21.5013C85.3572 22.2187 85.463 22.8823 85.46 23.6536C85.457 24.5727 85.2797 25.6578 86.2347 26.3468C86.333 26.4171 86.4209 26.5486 86.552 26.4903C86.7427 26.4051 86.6593 26.2303 86.6087 26.1032C86.2511 25.205 86.5655 24.3426 86.7293 23.4712C86.7517 23.3516 86.78 23.1603 86.9275 23.2351C87.7439 23.6461 87.4177 22.9182 87.4802 22.6552C87.5473 22.3712 87.5309 22.0588 87.5011 21.7644C87.4311 21.0903 87.4251 20.5119 88.2013 20.1577C88.5306 20.0067 88.7123 19.5329 88.9611 19.2056C89.0103 19.246 89.0461 19.2699 89.0431 19.2744C88.4725 20.4088 88.7794 21.5955 88.8315 22.7673C88.8449 23.0692 88.7972 23.3666 88.6423 23.6311C88.1998 24.3844 88.0374 25.205 88.0702 26.0673C88.0851 26.4813 87.9734 26.8401 87.7409 27.1883C87.4162 27.6785 87.4504 28.1747 87.656 28.7442C88.0642 29.8786 88.7391 30.9188 88.8226 32.1758C88.8673 32.8394 89.3723 33.2175 89.9444 33.4507C90.4242 33.6465 90.8264 33.9006 91.0529 34.3818C91.2331 34.5567 91.4462 34.7301 91.0946 34.9423C90.7519 35.1486 90.7638 35.4355 90.9009 35.7539C91.0812 36.1066 91.2644 36.4593 91.4432 36.8151C91.6667 37.2619 91.4894 37.5459 91.0305 37.4697C90.2767 37.3456 89.5332 37.1409 88.8002 36.9182C88.4978 36.827 88.3443 36.5909 88.2713 36.2053C88.1149 35.3772 87.6933 34.6449 87.0124 34.1083C86.7427 33.8961 86.4343 33.8094 86.1274 34.0605C85.8131 34.3161 85.8593 34.6314 86.0276 34.9333C86.2288 35.2965 86.2988 35.6523 86.2079 36.0737C86.0485 36.8076 86.345 37.259 87.0556 37.4682C87.2985 37.5399 87.7842 37.4009 87.5413 37.9181C87.3744 38.2723 87.1748 38.7386 86.6027 38.4875C86.4895 38.4382 86.3867 38.365 86.2794 38.3037C85.9516 38.1467 85.6134 38.0122 85.2946 37.8374C85.1665 37.7671 84.9907 37.6206 84.9043 37.661C83.9493 38.0959 83.7586 37.0886 83.2044 36.7777C83.0807 36.6252 82.9705 36.4504 82.9496 36.2665C82.9243 36.0274 83.0345 35.8914 83.2893 36.0677L83.3012 36.0692ZM87.4102 50.7896C88.7377 49.7329 90.2186 49.0364 91.9185 48.8571C92.5174 48.7943 92.4742 48.4491 92.3312 48.0082C91.7948 46.3566 91.2764 44.6991 90.7475 43.0446C90.6819 42.8398 90.6834 42.5289 90.4257 42.514C90.1634 42.5005 90.1381 42.8159 90.0606 43.0102C89.3515 44.7828 88.6289 46.5524 87.957 48.34C87.6486 49.1575 87.2225 49.9437 87.0511 50.9092C87.2404 50.8479 87.3432 50.8419 87.4087 50.7881L87.4102 50.7896ZM52.4927 21.0066C51.8505 21.5835 51.1816 22.1335 50.5246 22.694C50.4143 22.7882 50.246 22.8674 50.3339 23.0438C50.4173 23.2097 50.5827 23.1469 50.7287 23.117C50.9536 23.0722 51.1816 22.8749 51.3991 23.1544C51.9697 23.8867 52.2379 23.9256 52.9217 23.2919C53.3508 22.8943 53.8469 22.6477 54.3639 22.4026C54.7706 22.2098 55.4336 22.0439 55.3189 21.5267C55.2146 21.0619 54.6261 20.7944 54.1017 20.6733C53.9348 20.6344 53.7575 20.6434 53.5847 20.63C53.175 20.621 52.816 20.7152 52.4941 21.0036L52.4927 21.0066ZM81.938 25.6354C81.57 25.0151 80.8281 24.5787 80.1159 24.2678C79.6287 24.0556 79.2786 23.7597 79.1252 23.2395C79.0715 23.0572 79.003 22.7882 78.7602 22.8539C78.4681 22.9332 78.6022 23.2171 78.6082 23.4294C78.635 24.4128 79.3352 24.8896 80.0414 25.3709C80.2738 25.5293 80.6835 25.6175 80.5852 25.9881C80.396 26.6936 80.8996 27.006 81.2556 27.4394C81.6728 27.9476 82.3462 28.2375 82.5846 28.9504C83.0062 27.7204 82.5161 26.6144 81.9365 25.6354H81.938ZM81.9052 24.4666C82.2762 24.0048 81.9946 23.673 81.8322 23.3277C81.2229 21.9706 80.2247 21.023 78.8421 20.4895C78.5903 20.3923 78.2193 20.0635 78.0659 20.4058C77.8901 20.8018 78.3341 20.9722 78.6603 21.0918C78.8674 21.168 79.0924 21.1964 79.301 21.2712C79.6243 21.3862 79.8641 21.594 79.8895 21.9632C79.9356 22.6208 80.3453 22.975 80.9011 23.2141C81.4136 23.4637 81.6802 23.9301 81.9037 24.4636L81.9052 24.4666ZM87.2612 30.4151C86.9379 30.1476 86.5997 29.8935 86.2466 29.6664C86.0619 29.5468 85.8161 29.2509 85.6209 29.5662C85.4496 29.8457 85.466 30.2463 85.7907 30.4286C86.2407 30.6812 86.7383 30.8516 87.221 31.0399C87.37 31.0982 87.5234 31.0698 87.5294 30.7948C87.4579 30.6902 87.3864 30.5198 87.2597 30.4151H87.2612ZM73.6887 19.7795C73.7394 20.0381 73.7766 20.6001 74.0448 20.4491C74.5677 20.1547 74.8851 20.4596 75.2828 20.5896C75.4229 20.6359 75.5868 20.6912 75.6911 20.5493C75.7328 20.4925 75.7224 20.34 75.6732 20.2832C75.2605 19.7975 74.678 19.5703 74.1595 19.2878C73.8437 19.3356 73.6306 19.4881 73.6872 19.7795H73.6887ZM83.8271 32.5016C83.5321 32.4747 83.4576 32.7243 83.48 32.962C83.5187 33.3655 83.6007 33.8214 84.0819 33.8572C84.435 33.8841 84.2309 33.5284 84.2636 33.231C84.3262 32.944 84.3694 32.5509 83.8271 32.5016ZM89.8401 34.7525C89.8059 34.902 89.8982 34.9871 90.0398 34.9842C90.2662 34.9797 90.3899 34.8347 90.4242 34.6225C90.4465 34.485 90.378 34.3938 90.223 34.3714C90.0249 34.4207 89.8878 34.5477 89.8401 34.7525Z" fill="#BDA178"/>
<path d="M68.589 17.986C68.4891 18.1773 68.3536 18.3477 68.1018 18.3298C67.9707 18.3208 67.8694 18.2192 67.9126 18.0802C67.9915 17.8276 68.2269 17.8067 68.4415 17.7842C68.5577 17.7723 68.6083 17.8545 68.589 17.9845V17.986Z" fill="#BDA178"/>
<path d="M74.2265 22.138C73.9896 22.7284 73.7318 22.4444 73.4756 22.1545C73.7229 22.0454 73.9732 22.017 74.2265 22.138Z" fill="#BDA178"/>
<path d="M59.9583 33.0143C60.4768 32.8992 60.8686 32.5943 61.2798 32.3462C62.0069 31.9068 62.7756 31.5585 63.5638 31.2596C64.5336 30.8919 65.5155 31.3149 65.876 32.2879C66.0771 32.8304 66.3751 33.2444 66.8355 33.5732C67.0485 33.7257 67.348 33.9065 67.1975 34.2234C67.0694 34.4924 66.7446 34.4536 66.4749 34.5044C65.1311 34.7585 63.9154 35.2442 63.1511 36.4847C63.1257 36.5266 63.1019 36.5729 63.0661 36.6043C62.7831 36.8674 62.3331 37.0781 62.5238 37.5579C62.7116 38.0331 63.1034 38.3739 63.5921 38.5413C64.413 38.8208 65.2354 39.1093 66.0771 39.3155C66.8965 39.5158 67.5446 39.8386 67.8411 40.7055C68.0586 41.3392 68.3819 41.9341 68.6263 42.5588C68.7246 42.8114 68.7588 43.1163 68.5518 43.339C68.3238 43.5811 68.0482 43.4466 67.789 43.3584C67.2452 43.1746 66.749 42.916 66.2797 42.5708C65.5214 42.0133 64.7646 41.4513 63.9168 41.0194C63.0691 40.5859 62.5149 39.8581 62.1812 38.9613C61.983 38.4307 61.7864 38.3545 61.402 38.8761C60.8373 39.6443 60.517 40.5351 60.0581 41.3527C59.5173 42.3167 58.7664 43.0535 57.9619 43.747C57.2945 44.3225 55.0701 43.9608 54.5576 43.2613C54.3923 43.0356 54.428 42.8338 54.6306 42.6754C54.7424 42.5872 54.8928 42.5125 55.0329 42.5005C57.0397 42.3391 57.9753 40.8385 58.9229 39.3663C59.4741 38.5099 59.9986 37.6371 60.4246 36.7059C60.6288 36.2591 60.6854 35.8271 60.5811 35.3339C60.4574 34.7465 60.0954 34.4087 59.568 34.4326C59.0465 34.4566 58.8007 34.9139 58.7292 35.4251C58.5608 36.6267 58.6458 37.8613 58.239 39.033C58.0826 39.4844 57.9724 39.9791 57.4971 40.1869C55.9119 40.8804 54.501 41.9311 52.8428 42.4736C51.6241 42.8727 50.2222 42.224 49.6069 41.0687C48.5774 39.1362 48.5252 37.1738 49.3193 35.1635C49.5428 34.5956 49.6426 34.0515 49.4743 33.4268C49.2687 32.666 49.7588 32.2759 50.4948 32.5479C50.6781 32.6167 50.836 32.7542 51.0192 32.8289C51.2308 32.9141 51.5005 33.3311 51.6599 32.9081C51.7627 32.6346 52.013 32.1504 51.3843 31.9411C50.471 31.6392 50.5425 30.7604 50.398 30.0265C50.2743 29.4078 50.7332 29.2718 51.1608 29.0267C52.4942 28.2599 53.7516 27.3422 55.2787 26.9865C56.0013 26.8176 56.7417 26.716 57.4792 26.6368C58.0796 26.5725 58.8052 27.2346 58.8856 27.8369C58.9408 28.2569 58.6309 28.2629 58.3687 28.3077C57.588 28.4453 56.7879 28.4393 56.0102 28.6291C55.1342 28.8428 54.5651 29.4631 53.9364 30.028C54.4936 30.1102 54.9003 29.8068 55.3368 29.6051C55.9626 29.3151 57.4375 29.6873 57.8308 30.2388C58.032 30.5213 57.8487 30.6857 57.6833 30.883C56.9146 31.7947 56.8743 32.3148 57.4673 33.2519C57.6148 33.4836 57.7712 33.4791 57.95 33.3117C58.02 33.2444 58.0915 33.1607 58.1199 33.0711C58.7694 31.0489 60.1282 29.3525 60.745 27.3123C60.9074 26.7758 60.9729 26.2482 60.9684 25.6982C60.964 25.193 61.1919 25.0525 61.618 25.3365C62.1141 25.6668 62.0963 26.311 62.43 26.7354C62.8352 27.2526 62.5521 27.6247 62.36 28.1404C61.7461 29.7859 60.7971 31.2387 59.9598 32.7572C59.93 32.811 59.9553 32.8947 59.9553 33.0173L59.9583 33.0143ZM51.8834 40.556C52.2335 40.4619 52.5895 40.3931 52.9233 40.2407C53.1348 39.9717 52.9724 39.7699 52.7892 39.5935C51.8565 38.7012 51.6688 37.5429 51.6197 36.3353C51.6122 36.1335 51.639 35.9108 51.4006 35.8361C51.1667 35.7613 51.0386 35.9497 50.9224 36.1111C50.2788 37.0034 50.2341 39.1496 50.836 40.0882C51.0282 40.5979 51.3843 40.6891 51.8834 40.556ZM55.304 34.2667C54.8124 34.4805 54.4429 34.8511 54.1286 35.2651C53.92 35.5401 53.7293 35.8869 53.9662 36.2232C54.2209 36.5864 54.6232 36.5161 54.9852 36.41C55.5082 36.2561 55.8672 35.8779 56.1801 35.452C56.3961 34.4147 56.189 34.1352 55.304 34.2652V34.2667ZM56.1339 38.1273C55.4411 37.9599 54.7513 37.7836 54.0556 37.6326C53.7635 37.5698 53.6056 37.7716 53.6905 38.0227C53.8604 38.5219 53.7621 39.1974 54.2507 39.4829C54.7021 39.746 55.1104 39.2722 55.5037 39.045C55.7361 38.9105 55.9402 38.7281 56.1488 38.5563C56.2218 38.4965 56.271 38.4068 56.3142 38.3515C56.3171 38.1961 56.2322 38.1527 56.1339 38.1288V38.1273ZM53.0633 34.2518C52.7832 34.0515 51.4006 34.4386 51.274 34.7585C51.2204 34.8915 51.2636 35.0096 51.3679 35.0858C51.6256 35.2741 51.9072 35.5132 52.235 35.3563C52.6268 35.1665 53.0037 34.9244 53.2376 34.5776C53.2779 34.3818 53.1661 34.325 53.0648 34.2518H53.0633ZM63.2896 33.6375C62.6624 33.6824 62.1663 33.9873 61.7491 34.4386C61.6165 34.5821 61.6016 34.7495 61.7268 34.9124C61.8385 35.0559 61.98 35.1471 62.1693 35.1411C62.433 35.1336 63.5414 34.1263 63.5801 33.7212C63.5801 33.6674 63.4461 33.6271 63.2881 33.639L63.2896 33.6375ZM57.5835 34.8287C57.4256 34.7943 57.2975 34.8362 57.2692 35.0335C57.2349 35.2681 57.7161 36.2471 57.871 36.2172C58.2048 36.1514 58.2107 35.8465 58.2763 35.6328C58.3478 35.0649 57.9932 34.9169 57.5835 34.8287ZM53.9974 32.4418C53.9945 32.6287 54.1211 32.7124 54.2909 32.681C54.4742 32.6466 54.5993 32.5166 54.6291 32.3282C54.6589 32.1399 54.5502 32.0577 54.3699 32.0517C54.1554 32.0951 54.0034 32.2072 53.9989 32.4418H53.9974Z" fill="#BDA178"/>
<path d="M67.9603 54.2676C69.2594 53.5666 69.1432 53.9029 68.5667 52.5249C68.2344 51.7327 68.0527 51.087 68.4639 50.2695C68.7931 49.6149 68.9525 48.8661 69.1328 48.1457C69.1983 47.8826 69.2743 47.494 68.9421 47.3446C68.6605 47.2175 68.446 47.4955 68.2448 47.6734C67.9111 47.9678 67.6117 48.2652 67.4776 48.736C67.2899 49.3937 66.5941 49.5297 66.0846 49.7195C65.0327 50.1141 64.6096 50.7866 64.6603 51.8732C64.6841 52.3649 64.5858 52.8626 64.5724 53.3574C64.5664 53.5621 64.477 53.87 64.7541 53.9328C64.997 53.9881 64.9523 53.6294 65.1132 53.5218C65.3292 53.4291 65.289 52.8851 65.6734 53.1421C65.9788 53.3469 65.7687 53.6518 65.6987 53.9417C65.432 55.0567 64.5411 55.9639 64.6186 57.1835C64.6573 57.7978 64.7631 58.4061 64.8391 59.0174C64.8659 59.2312 64.9925 59.4464 64.8346 59.6586C63.7112 59.6108 62.8739 58.3957 63.0527 57.0894C63.2717 55.4902 63.0661 53.8775 63.1928 52.2738C63.2375 51.7148 62.938 51.5788 62.4419 51.7312C62.1812 51.8119 61.913 51.8657 61.6523 51.9479C60.8194 52.2125 60.5975 52.0989 60.4232 51.2231C60.3025 50.6192 60.1341 49.993 60.7345 49.5028C60.9982 49.2875 61.1472 49.017 61.5882 49.3428C62.0232 49.6642 63.452 48.7764 63.455 48.1995C63.4639 46.5987 63.9973 45.0593 63.963 43.4571C63.9571 43.1776 64.0137 42.8772 64.3012 42.7621C64.6066 42.641 64.7288 42.9444 64.8763 43.1253C65.2517 43.5826 65.6123 44.0549 65.9788 44.5197C66.1948 44.7948 66.2157 45.0757 65.943 45.3134C65.6272 45.5884 65.6063 45.9486 65.5542 46.3237C65.4663 46.95 65.368 47.5359 66.3364 47.2713C66.3989 47.2549 66.4987 47.2803 66.5464 47.3236C67.3271 48.0351 67.6429 47.2997 68.0422 46.8409C68.1063 46.7676 68.1152 46.6271 68.1882 46.5868C69.5783 45.8066 69.6379 44.321 70.0714 43.0341C70.0937 42.9698 70.1399 42.913 70.2442 42.7307C70.3083 43.3734 69.982 43.8113 69.9462 44.3C69.9239 44.5945 69.7645 44.9502 70.0029 45.152C70.2606 45.3702 70.49 45.0294 70.7135 44.9083C71.1202 44.6871 71.7445 44.6468 71.8667 44.1685C72.0484 43.4571 72.1691 42.7083 72.1199 41.958C72.0872 41.4678 71.6953 41.4065 71.2886 41.3108C71.6283 40.9133 71.9963 40.8879 72.3896 41.1957C72.7606 41.4857 73.1241 41.7891 73.4712 42.1075C73.8809 42.4826 74.3353 42.8443 73.7468 43.4586C73.5368 43.6783 73.6396 43.8845 73.9867 43.8412C74.5722 43.7695 75.1488 43.6095 75.7224 43.9593C75.9339 44.0878 75.9608 43.8173 76.0129 43.6529C76.2245 42.9893 76.4911 42.9026 76.9902 43.3868C77.6517 44.0295 78.0838 44.8022 78.0555 45.7618C78.0436 46.1653 77.9869 46.6002 77.5564 46.7646C77.1273 46.9291 76.9783 46.4822 76.737 46.2595C76.6297 46.1593 76.5448 46.0323 76.4494 45.9187C76.1351 45.421 74.6169 44.995 74.0985 45.2715C73.7409 45.4628 73.8258 45.6885 74.0791 45.9082C74.2638 45.98 74.456 46.0383 74.6333 46.1265C76.6193 47.1144 76.8666 47.787 75.998 49.8211C75.9399 49.9571 75.8818 50.0961 75.8431 50.2396C75.6404 51.0019 75.7477 51.105 76.515 51.0452C77.2912 50.9854 78.0883 50.7268 78.8347 51.2096C79.0492 51.3486 79.3025 51.4592 79.2086 51.7686C79.1237 52.0511 78.8585 52.1273 78.6037 52.0959C77.8335 52.0002 77.0692 52.069 76.3049 52.1333C75.6449 52.1901 75.5481 52.3634 75.9131 52.897C76.293 53.453 76.5954 53.9208 75.9831 54.5964C75.5719 55.0507 75.6583 55.7831 75.7686 56.4004C75.9995 57.6872 75.8833 58.9681 75.7805 60.255C75.7313 60.8767 75.408 61.1039 74.818 61.1472C72.8395 61.2892 71.0949 60.6929 69.7645 59.2551C68.9272 58.3508 68.1346 57.2897 68.4847 55.801C68.1346 55.8563 67.9037 56.1523 67.5655 56.2001C66.9219 56.2898 66.4406 56.1269 66.165 55.5051C65.8879 54.8774 66.4496 54.7593 66.7729 54.4962C66.8697 54.4185 66.9666 54.3423 67.0634 54.2646C67.3614 54.0897 67.6578 54.5515 67.9558 54.2646L67.9603 54.2676ZM71.8041 54.6113C72.765 54.8923 73.142 55.3691 73.2463 56.357C73.282 56.6933 73.2016 56.9549 72.9155 57.1208C72.5952 57.3061 72.3375 57.1447 72.1304 56.9055C71.6879 56.3959 71.153 55.9968 70.636 55.5724C70.3306 55.3228 70.1116 55.381 69.8464 55.5724C69.3265 55.9475 69.2684 56.6679 69.6438 57.463C70.1444 58.5257 71.1128 58.7544 72.1184 59.0159C73.3565 59.3373 74.1238 58.862 74.2206 57.5856C74.304 56.4945 74.4068 55.4035 74.3517 54.3064C74.3368 54.009 74.316 53.7101 74.2594 53.4186C74.1491 52.8596 73.8169 52.6534 73.2835 52.9045C72.4373 53.3035 71.5195 53.5726 70.712 54.3274C71.1471 54.4394 71.4793 54.5142 71.8071 54.6098L71.8041 54.6113ZM70.1608 53.1406C70.4751 53.1421 70.8685 52.9658 70.8759 52.6205C70.8849 52.1662 70.5616 51.6012 70.1995 51.5818C69.6259 51.5504 70.0744 52.2379 69.8286 52.4815C69.8032 52.8058 69.7958 53.1376 70.1608 53.1391V53.1406ZM74.5812 47.2713C74.5812 46.9604 74.4426 46.7826 74.1372 46.8528C73.7737 46.9365 73.2671 46.9186 73.2314 47.4268C73.2001 47.8796 73.6128 47.7511 73.9733 47.7675C74.2743 47.8183 74.5782 47.772 74.5797 47.2713H74.5812ZM73.7558 49.6044C73.4399 49.6687 73.1092 49.7464 73.0526 50.1425C73.0243 50.3338 73.1181 50.5056 73.3356 50.4847C73.6947 50.4503 73.8943 50.2112 73.9912 49.8854C74.0106 49.7001 73.9569 49.5655 73.7573 49.6059L73.7558 49.6044ZM70.9951 46.6899C70.9921 46.8394 71.0264 47.0232 71.2335 46.9575C71.4823 46.8782 71.6357 46.678 71.6506 46.4074C71.6596 46.2385 71.5732 46.1279 71.381 46.1354C71.1068 46.2161 70.9981 46.4224 70.9936 46.6899H70.9951ZM71.2856 50.132C71.1083 50.0961 70.9132 50.12 70.8863 50.3338C70.8565 50.5699 70.9653 50.7702 71.2275 50.809C71.4212 50.8374 71.5463 50.7283 71.6044 50.5325C71.6328 50.2994 71.4987 50.1753 71.2856 50.1335V50.132ZM70.5228 46.5823C70.5407 46.4568 70.426 46.4164 70.3172 46.4448C70.1384 46.4926 70.0058 46.6047 69.9731 46.796C69.9537 46.9081 70.0118 46.9829 70.1459 46.9888C70.3366 46.9231 70.49 46.796 70.5213 46.5823H70.5228Z" fill="#BDA178"/>
<path d="M128.67 57.5796C128.129 57.5796 127.335 57.5826 126.542 57.5781C126.323 57.5781 126.052 57.6155 125.976 57.3405C125.893 57.0341 126.179 57.0131 126.371 56.9085C127.249 56.4347 127.316 55.5454 127.371 54.7174C127.471 53.2064 127.494 51.6879 127.517 50.1738C127.544 48.334 127.548 46.4941 127.539 44.6542C127.536 43.8785 127.527 43.0789 126.617 42.7217C126.501 42.6754 126.422 42.5633 126.44 42.4228C126.462 42.2375 126.604 42.1867 126.758 42.1762C126.957 42.1642 127.155 42.1702 127.353 42.1672C128.418 42.1463 129.483 42.1448 130.549 42.1C132.088 42.0342 133.455 42.3959 134.22 43.8442C134.985 45.2954 134.868 46.7721 133.943 48.1516C133.805 48.3564 133.63 48.5372 133.457 48.7136C132.995 49.1819 133.059 49.5685 133.649 49.8734C135.078 50.6147 135.641 51.8941 135.441 53.9417C135.277 55.6217 134.179 56.9309 132.615 57.4271C131.387 57.8172 130.154 57.5482 128.67 57.5796ZM129.029 53.1346C129.029 53.9313 129.026 54.7279 129.03 55.523C129.032 55.7935 129.026 56.0596 129.299 56.2524C130.447 57.0625 132.785 56.4497 133.424 55.1583C134.753 52.477 133.32 50.0901 130.37 50.0752C130.172 50.0752 129.972 50.0871 129.774 50.0752C129.244 50.0438 129.002 50.271 129.019 50.821C129.042 51.5922 129.025 52.3634 129.025 53.1346H129.028H129.029ZM129.03 46.1653C129.03 46.9096 129.028 47.6554 129.032 48.3997C129.032 48.6493 129.044 48.8944 129.327 49.0245C130.397 49.5177 132.132 48.9378 132.637 47.8647C133.224 46.6167 133.241 45.3507 132.475 44.17C131.828 43.1716 130.799 43.1537 129.752 43.2418C129.267 43.2822 129.041 43.5124 129.05 44.0056C129.062 44.726 129.053 45.4449 129.053 46.1653H129.03Z" fill="#BDA178"/>
</g>
<defs>
<clipPath id="clip0_6257_3656">
<rect width="119" height="55" fill="white" transform="translate(41 13)"/>
</clipPath>
</defs>
</svg>
