<svg width="201" height="81" viewBox="0 0 201 81" fill="none" xmlns="http://www.w3.org/2000/svg">
<g clip-path="url(#clip0_6240_3038)">
<path d="M46.8375 26.8908H64.6455V31.0845H51.4485V37.1696H60.1935V41.2811H51.4485V48.1063H65.043V52.3H46.8375V26.8908Z" fill="black"/>
<path d="M63.771 34.2093H68.4615L72.5955 46.7906L76.4115 34.2093H81.0225L74.6625 52.2178H70.449L63.771 34.2093Z" fill="black"/>
<path d="M80.307 43.2547C80.307 37.7452 83.964 33.8804 89.2905 33.8804C94.5375 33.8804 98.1945 37.7452 98.1945 43.2547C98.1945 48.6819 94.458 52.5467 89.1315 52.5467C83.964 52.6289 80.307 48.7641 80.307 43.2547ZM93.5835 43.4191V43.2547C93.5835 39.801 91.9935 37.7452 89.2905 37.7452C86.5875 37.7452 84.9975 39.801 84.9975 43.2547V43.4191C84.9975 46.7906 86.5875 48.7641 89.211 48.7641C91.914 48.7641 93.5835 46.7906 93.5835 43.4191Z" fill="black"/>
<path d="M100.341 26.5619H104.952V52.3H100.341V26.5619Z" fill="black"/>
<path d="M107.576 45.0637V34.2093H112.187V44.7348C112.187 47.1195 113.299 48.5174 115.366 48.5174C117.751 48.5174 118.785 46.3794 118.785 43.3369V34.2093H123.396V52.2178H118.785V49.6686C117.831 51.5599 116.241 52.5467 114.015 52.5467C110.04 52.6289 107.576 49.6686 107.576 45.0637Z" fill="black"/>
<path d="M127.53 47.4484V38.0741H125.065V34.2915H127.53V30.8379L131.982 28.2065V34.2093H135.401V37.9919H131.903V47.0373C131.903 47.9418 132.3 48.2707 133.175 48.353H135.242V52.3H131.664C128.325 52.0533 127.609 50.4909 127.53 47.4484Z" fill="black"/>
<path d="M137.547 26.973H142.317V31.5779H137.547V26.973ZM137.626 34.2093H142.237V52.2178H137.626V34.2093Z" fill="black"/>
<path d="M144.305 43.2547C144.305 37.7452 147.961 33.8804 153.288 33.8804C158.535 33.8804 162.192 37.7452 162.192 43.2547C162.192 48.6819 158.456 52.5467 153.129 52.5467C147.882 52.6289 144.305 48.7641 144.305 43.2547ZM157.581 43.4191V43.2547C157.581 39.801 155.991 37.7452 153.288 37.7452C150.585 37.7452 148.995 39.801 148.995 43.2547V43.4191C148.995 46.7906 150.585 48.7641 153.208 48.7641C155.911 48.7641 157.581 46.7906 157.581 43.4191Z" fill="black"/>
<path d="M164.259 34.2093H168.87V37.1696C169.824 35.0316 171.494 33.8804 173.958 33.8804C177.774 33.8804 180 36.5118 180 41.4456V52.3H175.389V41.6923C175.389 39.1431 174.435 37.9097 172.289 37.9097C170.142 37.9097 168.791 39.7188 168.791 43.0902V52.3H164.18L164.259 34.2093Z" fill="black"/>
<path d="M40.3185 55.5892C39.5235 55.5892 38.8875 54.9314 38.8875 54.1091C38.8875 53.2868 39.5235 52.6289 40.3185 52.6289C41.1135 52.6289 41.7495 53.2868 41.7495 54.1091C41.7495 54.9314 41.1135 55.5892 40.3185 55.5892ZM40.3185 52.2178C39.3645 52.2178 38.5695 53.0401 38.5695 54.1091C38.5695 55.1781 39.3645 56.0004 40.3185 56.0004C41.2725 56.0004 42.147 55.1781 42.147 54.1091C42.147 53.0401 41.352 52.2178 40.3185 52.2178Z" fill="black"/>
<path d="M37.4565 38.6498C38.8875 38.732 40.4775 38.6498 42.147 38.4853C41.9085 34.8672 40.7955 31.9069 39.0465 29.6044C39.126 30.2622 39.2055 30.9201 39.2055 31.5779C39.2055 34.1271 38.5695 36.594 37.4565 38.6498Z" fill="black"/>
<path d="M36.8205 39.7188C34.2765 43.6658 29.904 46.2972 24.975 46.2972C24.657 46.2972 24.2595 46.2972 23.9415 46.215C22.6695 48.1885 21.8745 50.4087 21 52.5467C29.8245 57.3983 41.2725 52.3 42.147 39.801C40.1595 39.6365 38.4105 39.6365 36.8205 39.7188Z" fill="black"/>
<path d="M21 25.8222C23.4645 31.5783 25.293 38.239 37.4565 38.6502C38.5695 36.5122 39.2055 34.1275 39.2055 31.5783C39.2055 30.9205 39.126 30.2626 39.0465 29.6048C34.9125 23.9309 27.2805 22.3685 21 25.8222Z" fill="black"/>
<path d="M36.8205 39.7188C29.5065 40.0477 26.088 42.8435 23.9415 46.215C24.2595 46.215 24.657 46.2972 24.975 46.2972C29.9835 46.2972 34.2765 43.6658 36.8205 39.7188Z" fill="black"/>
<path d="M39.6825 53.7802H39.444V53.6157H40.239V53.7802H40.0005V54.6025H39.762C39.6825 54.6025 39.6825 53.7802 39.6825 53.7802Z" fill="black"/>
<path d="M40.239 53.6157H40.557L40.716 54.2736L40.875 53.6157H41.193V54.6025H40.9545V53.8624L40.875 54.6025H40.716L40.4775 53.8624V54.6025H40.3185V53.6157H40.239Z" fill="black"/>
</g>
<defs>
<clipPath id="clip0_6240_3038">
<rect width="159" height="32" fill="white" transform="translate(21 24)"/>
</clipPath>
</defs>
</svg>
