<svg width="99" height="46" viewBox="0 0 99 46" fill="none" xmlns="http://www.w3.org/2000/svg">
<path d="M98.9965 28.1384C98.7255 28.1384 98.4556 28.1384 98.1846 28.1384C96.4093 28.1384 94.6346 28.1293 92.8593 28.1464C92.5302 28.1494 92.3318 28.0529 92.1627 27.7672C90.3776 24.7689 88.5828 21.7767 86.7898 18.7834C86.7629 18.7391 86.7226 18.7039 86.628 18.5923C86.4156 18.9181 86.2147 19.1998 86.0401 19.4985C84.4138 22.2866 82.7942 25.0787 81.1617 27.8638C81.0897 27.9855 80.9175 28.1253 80.7905 28.1263C78.8113 28.1424 76.8309 28.1384 74.8145 28.1384C74.8383 28.0257 74.8346 27.9392 74.8737 27.8819C76.3743 25.6359 77.8791 23.394 79.3821 21.15C80.5335 19.4311 81.6757 17.7062 82.8351 15.9933C83.009 15.7348 83.017 15.5205 82.8467 15.2751C81.3162 13.0654 79.7869 10.8547 78.2582 8.64289C77.3101 7.27099 76.3633 5.89799 75.4195 4.52309C75.3608 4.43759 75.3346 4.32999 75.2681 4.17109C75.4616 4.15899 75.6038 4.14289 75.7473 4.14289C77.605 4.14189 79.4633 4.15199 81.321 4.13579C81.6715 4.13289 81.8949 4.26359 82.0646 4.54519C83.5841 7.07589 85.1055 9.60539 86.6244 12.136C86.8142 12.4539 86.9333 12.4589 87.1366 12.1089C87.9864 10.6414 88.827 9.16689 89.6762 7.69849C90.3245 6.57589 90.9778 5.45549 91.6414 4.34199C91.6994 4.24549 91.8544 4.15199 91.9655 4.15099C93.9325 4.14189 95.9001 4.14689 97.8683 4.15099C97.9056 4.15099 97.9422 4.17809 98.0649 4.22639C97.8439 4.57139 97.6412 4.90229 97.4239 5.22319C96.0137 7.29909 94.6016 9.37409 93.1883 11.4481C92.3422 12.6902 91.4948 13.9314 90.6426 15.1696C90.4942 15.3848 90.4582 15.5658 90.6237 15.8062C92.4893 18.5219 94.3495 21.2436 96.2029 23.9673C97.0485 25.2095 97.8775 26.4637 98.7169 27.7099C98.7993 27.8336 98.905 27.9422 98.9996 28.0569V28.1404L98.9965 28.1384Z" fill="#242B57"/>
<path d="M54.906 45.6851C54.845 45.629 54.7931 45.5523 54.7216 45.52C54.4976 45.4195 54.2583 45.3501 54.0391 45.2404C53.8334 45.1381 53.7668 44.9888 53.9463 44.7787C54.1228 44.5734 54.232 44.2317 54.4426 44.1583C54.624 44.0959 54.8999 44.3456 55.1453 44.426C55.9109 44.6751 56.8168 44.588 56.8504 43.4321C56.6862 43.4824 56.5336 43.5116 56.3962 43.5739C55.3474 44.0527 53.895 43.4271 53.754 41.9123C53.7058 41.4054 53.8059 40.9306 54.0379 40.474C54.5263 39.5145 55.7521 39.4149 56.5073 39.8172C56.688 39.9138 56.7839 39.9208 57 39.8172C57.2918 39.6784 57.6807 39.7418 58.0287 39.7357C58.0592 39.7357 58.1221 39.8665 58.1215 39.9359C58.1025 41.2605 58.1105 42.5862 58.0372 43.9078C57.9945 44.6952 57.5848 45.2837 56.7814 45.5212C56.724 45.5383 56.6868 45.629 56.6404 45.6839H54.906V45.6851ZM56.0391 40.6983C55.5122 40.6772 54.9994 41.1408 54.9909 41.6458C54.9835 42.0904 55.453 42.5932 55.8938 42.6134C56.431 42.6375 56.942 42.1959 56.9658 41.687C56.9878 41.2334 56.5037 40.7164 56.0385 40.6973L56.0391 40.6983Z" fill="#242B57"/>
<path d="M70.9232 45.6855C70.588 45.3182 70.7815 44.9399 70.8859 44.5305C71.0038 44.5397 71.1143 44.5287 71.2132 44.558C71.5318 44.6518 71.82 44.6225 72.0312 44.346C72.2565 44.0521 72.3731 43.7634 72.1875 43.3621C71.6405 42.1782 71.1393 40.9723 70.5898 39.7049C71.0166 39.7049 71.4091 39.6839 71.7962 39.7191C71.9 39.7281 72.0269 39.891 72.0758 40.0118C72.3554 40.6967 72.6142 41.3907 72.9152 42.1722C73.0178 41.9831 73.1093 41.8574 73.1576 41.7176C73.3517 41.1583 73.5434 40.5981 73.7143 40.0308C73.7851 39.7965 73.8908 39.6828 74.1472 39.7009C74.4323 39.7211 74.7192 39.706 75.091 39.706C74.892 40.2511 74.7204 40.7369 74.536 41.2167C74.1014 42.3482 73.663 43.4787 73.218 44.6061C73.0709 44.9795 72.9121 45.3517 72.5019 45.5247C72.4561 45.5435 72.439 45.63 72.4079 45.6843H70.9219L70.9232 45.6855Z" fill="#242B57"/>
<path d="M61.2712 28.1381C61.0649 28.1381 60.9165 28.1381 60.7688 28.1381C59.3384 28.1381 57.9074 28.124 56.477 28.1472C56.0802 28.1542 55.974 28.0416 55.9746 27.6423C55.9874 20.2546 55.985 12.867 55.9856 5.47945C55.9856 5.14755 55.9996 4.81465 55.9807 4.48365C55.9649 4.20405 56.0802 4.13465 56.3427 4.13465C59.245 4.14275 62.1479 4.10445 65.0507 4.15685C66.5526 4.18395 68.0574 4.30065 69.5037 4.80355C71.8986 5.63635 73.3705 7.28785 73.7832 9.79335C74.0762 11.5705 73.9846 13.3578 73.2124 15.0255C72.5262 16.506 71.3754 17.5178 69.8443 18.0811C68.6752 18.5116 67.4652 18.7318 66.2247 18.7489C64.7254 18.7701 63.2254 18.7661 61.7266 18.7489C61.3579 18.7449 61.259 18.8686 61.2608 19.2267C61.2743 22.0208 61.27 24.816 61.2712 27.61C61.2712 27.7609 61.2712 27.9118 61.2712 28.1361V28.1381ZM61.2663 11.489C61.2663 12.2776 61.2791 13.0662 61.2608 13.8537C61.2541 14.1625 61.3152 14.2952 61.665 14.2882C62.8469 14.2641 64.0306 14.3003 65.2119 14.2641C65.6832 14.249 66.1679 14.1554 66.6185 14.0086C68.7015 13.3297 68.779 11.0807 68.0183 10.0125C67.4903 9.27025 66.7137 8.88305 65.848 8.80765C64.5105 8.69195 63.1637 8.68595 61.8213 8.63565C61.7535 8.63265 61.6857 8.65375 61.6168 8.65875C61.3518 8.67795 61.2498 8.79755 61.2584 9.08325C61.2791 9.88485 61.2651 10.6874 61.2651 11.489H61.2663Z" fill="#242B57"/>
<path d="M0.010014 17.515C0.00702257 16.9367 0.00299139 16.3583 0 15.779C0.448526 14.9542 0.813294 14.0691 1.3595 13.3168C4.1302 9.4998 6.94883 5.7189 9.74743 1.9231C10.2956 1.1788 10.8388 0.4345 11.7318 0.0672998C11.9511 0.0451998 12.1703 0.0231 12.3896 0C13.4062 0.4475 13.6584 1.3558 13.6983 2.3324C13.781 4.3712 13.8039 6.413 13.8697 8.4517C13.8846 8.9164 13.7591 9.2714 13.466 9.6496C12.4783 10.925 11.5494 12.2466 10.5946 13.5481C10.1701 14.1265 9.71758 14.6847 9.30892 15.2741C8.53451 16.3895 8.54348 17.0071 9.34084 18.0994C10.3415 19.4693 11.3561 20.8291 12.3647 22.193C12.7993 22.7804 13.2497 23.3577 13.6654 23.9582C13.782 24.1261 13.8557 24.3625 13.8577 24.5677C13.8716 26.2826 13.8956 27.9985 13.8497 29.7124C13.8238 30.6639 13.7371 31.6264 13.3055 32.5075C12.9637 33.2056 12.264 33.6913 11.3063 33.0587C10.5109 32.5337 10.0056 31.7582 9.45745 31.0179C6.75048 27.3598 4.0465 23.6997 1.34753 20.0355C0.778435 19.2641 0.270143 18.4544 0.010014 17.515Z" fill="#0185C7"/>
<path d="M18.8244 0.231539C19.528 0.509139 19.9347 1.11164 20.3552 1.68394C22.0865 4.03644 23.7967 6.40414 25.525 8.75774C26.7479 10.4233 28.0186 12.0547 29.2096 13.7425C29.8715 14.6799 30.4037 15.6998 30.304 16.9288C30.2263 17.8884 29.8156 18.7151 29.2834 19.4715C28.3725 20.767 27.4037 22.0212 26.4639 23.2976C24.2991 26.2376 22.1473 29.1886 19.9626 32.1135C19.6665 32.5098 19.2479 32.8467 18.8224 33.1052C18.0709 33.5638 17.3214 33.3567 16.9865 32.5339C16.7015 31.8328 16.4802 31.0573 16.4513 30.3071C16.3766 28.3588 16.4194 26.4055 16.4303 24.4543C16.4314 24.2632 16.4991 24.0379 16.6118 23.886C17.9802 22.0373 19.3645 20.2017 20.739 18.3571C20.9443 18.0815 21.1317 17.7898 21.2971 17.4881C21.7097 16.7357 21.4925 16.0317 21.0409 15.397C20.2586 14.2967 19.4423 13.2215 18.636 12.1382C17.9533 11.2209 17.2616 10.3106 16.5879 9.38634C16.4902 9.25264 16.4314 9.05844 16.4303 8.89154C16.4204 6.92614 16.3905 4.96084 16.4393 2.99654C16.4623 2.06114 16.6128 1.11964 17.3024 0.384439C17.3583 0.325039 17.429 0.279839 17.4928 0.227539C17.9364 0.228539 18.3799 0.230539 18.8224 0.231539H18.8244Z" fill="#242B57"/>
<path d="M51.4928 18.7577C48.5765 18.7577 45.7041 18.7577 42.8318 18.7577C42.0168 18.7577 41.6108 19.1674 41.6126 19.9868C41.6139 22.5465 41.6059 25.1063 41.623 27.6661C41.6249 28.0493 41.5211 28.1549 41.1383 28.1479C39.7079 28.1237 38.2769 28.1267 36.8459 28.1459C36.4632 28.1509 36.3197 28.0583 36.3203 27.6419C36.3313 19.9496 36.3307 12.2561 36.3203 4.56381C36.3203 4.20271 36.4418 4.13231 36.7709 4.13331C41.8062 4.14341 46.8415 4.14341 51.8774 4.13431C52.1833 4.13431 52.2834 4.21481 52.2791 4.52761C52.2651 5.89751 52.2602 7.26741 52.2809 8.63631C52.2858 8.98731 52.1564 9.04661 51.8493 9.04661C48.6583 9.03861 45.466 9.04161 42.2744 9.04261C42.1242 9.04261 41.9563 9.01851 41.8281 9.07481C41.7213 9.12111 41.5901 9.27091 41.5888 9.37551C41.584 10.7022 41.6157 12.0298 41.601 13.3565C41.5968 13.7488 41.6896 13.8735 42.0949 13.8715C45.0112 13.8544 47.9288 13.8624 50.8451 13.8634C51.4849 13.8634 51.5215 13.8997 51.5215 14.5424C51.5215 15.8982 51.5196 17.254 51.5178 18.6098C51.5178 18.6631 51.5007 18.7155 51.4928 18.7577Z" fill="#242B57"/>
<path d="M0.49121 40.7782C0.47723 38.9959 1.68423 37.7658 3.3925 37.6964C5.57323 37.6079 6.7403 39.0019 6.75727 40.7058C6.77619 42.5706 5.59117 43.8298 3.67754 43.8399C1.82073 43.85 0.498171 42.7697 0.490234 40.7792L0.49121 40.7782ZM5.36395 40.8164C5.47555 39.7191 4.65828 38.9154 3.62473 38.8883C2.62707 38.8621 1.81774 39.7261 1.81878 40.7521C1.81878 41.8414 2.58421 42.6219 3.64567 42.6168C4.67721 42.6118 5.3659 41.8916 5.36395 40.8164Z" fill="#242B57"/>
<path d="M28.3368 43.6067C28.3318 41.7801 28.3218 39.9546 28.3338 38.1281C28.3338 38.0204 28.5062 37.8183 28.5959 37.8203C29.5547 37.8364 30.5155 37.8585 31.4713 37.936C32.0603 37.9832 32.4819 38.3594 32.5935 38.9387C32.7112 39.5473 32.6275 40.1367 31.9676 40.4545C31.9258 40.4746 31.9009 40.5319 31.852 40.5913C31.9158 40.6446 31.9607 40.6938 32.0155 40.727C32.7978 41.1907 32.9992 41.6011 32.8577 42.456C32.767 43.0062 32.2068 43.5413 31.4893 43.5966C30.4647 43.6751 29.4331 43.6569 28.4045 43.6811C28.3826 43.6569 28.3597 43.6318 28.3377 43.6077L28.3368 43.6067ZM30.4238 42.5325C30.6161 42.5325 30.8085 42.5436 30.9999 42.5295C31.3268 42.5053 31.5391 42.3162 31.6078 42.0034C31.6816 41.6675 31.4484 41.4643 31.1843 41.3848C30.8903 41.2963 30.5663 41.2863 30.2544 41.2812C29.5567 41.2702 29.5567 41.2792 29.5577 41.9692C29.5577 42.3414 29.7364 42.5291 30.0939 42.5325C30.2035 42.5325 30.3142 42.5325 30.4238 42.5325ZM29.5886 38.9669C29.5148 39.7555 29.8401 40.1423 30.5643 40.1276C30.6052 40.1276 30.647 40.1276 30.6879 40.1256C31.0686 40.1004 31.3587 39.8731 31.3398 39.5684C31.3168 39.2173 31.0656 39.0142 30.7477 38.977C30.373 38.9337 29.9892 38.9669 29.5886 38.9669Z" fill="#242B57"/>
<path d="M81.8232 43.658C80.9972 43.7485 80.5845 43.4106 80.5845 42.6442C80.5845 42.2288 80.5912 41.8144 80.5814 41.399C80.5711 40.9756 80.3568 40.713 80.032 40.7C79.6596 40.6849 79.3843 40.8971 79.3525 41.3236C79.3098 41.9109 79.2964 42.5053 79.3324 43.0927C79.3641 43.6168 79.3293 43.6982 78.8025 43.6932C77.9863 43.6852 78.029 43.8139 78.0308 42.9107C78.032 42.3847 78.0351 41.8597 78.0278 41.3336C78.0241 41.0429 77.96 40.7673 77.6194 40.703C77.2537 40.6346 77.0015 40.8156 76.8776 41.1465C76.8117 41.3215 76.7958 41.5237 76.7927 41.7138C76.783 42.3485 76.7891 42.9841 76.7891 43.656H75.5742V39.7152C76.0113 39.7626 76.4667 39.5242 76.8605 39.9566C76.9582 39.9004 77.065 39.844 77.167 39.7796C77.7488 39.4115 78.377 39.4487 78.8623 39.9285C79.0882 40.1528 79.2231 40.1256 79.4319 39.9154C79.8348 39.5091 80.4874 39.4246 81.0375 39.6821C81.5588 39.9255 81.7542 40.3439 81.7493 40.9192C81.7426 41.6756 81.7963 42.433 81.822 43.1903C81.8268 43.3382 81.822 43.487 81.822 43.655L81.8232 43.658Z" fill="#242B57"/>
<path d="M61.6075 43.603C61.6056 41.8207 61.6075 40.0374 61.5977 38.2551C61.5953 37.9252 61.7039 37.7753 62.055 37.7994C62.9548 37.8618 63.8638 37.8487 64.7558 37.9674C65.4975 38.067 66.0872 38.6262 65.9786 39.9026C65.9108 40.6942 65.3937 41.2654 64.5567 41.361C64.0476 41.4194 63.5317 41.4344 62.9548 41.4727V43.6824C62.4902 43.6824 62.0849 43.6824 61.6801 43.6824C61.6563 43.6552 61.6325 43.6281 61.6075 43.6009V43.603ZM62.92 39.5707C62.92 39.7225 62.8883 39.8845 62.931 40.0233C62.9628 40.1259 63.0836 40.2616 63.1783 40.2727C63.4493 40.3059 63.7314 40.315 64.0006 40.2747C64.3241 40.2265 64.6153 40.0826 64.6483 39.6914C64.6813 39.3001 64.431 39.113 64.1062 39.0185C63.9255 38.9662 63.7283 38.9581 63.5391 38.9561C62.8284 38.9491 62.9249 38.8968 62.9212 39.5697L62.92 39.5707Z" fill="#242B57"/>
<path d="M42.5254 37.71C42.5614 37.6305 42.5944 37.4857 42.6353 37.4837C42.9643 37.4646 43.297 37.4475 43.6212 37.4917C43.6945 37.5018 43.7842 37.7492 43.7854 37.888C43.7903 38.8686 43.7726 39.8493 43.7647 40.831C43.7647 40.8934 43.7903 40.9567 43.8312 41.1357C44.0486 40.8974 44.2488 40.7485 44.3556 40.5494C44.8428 39.6351 45.6395 39.6039 46.5809 39.7588C46.3489 40.0384 46.1505 40.306 45.9234 40.5463C45.3471 41.1572 45.3062 41.7935 45.7994 42.4554C46.0839 42.8355 46.3739 43.2117 46.7347 43.6885C46.1615 43.6885 45.7128 43.7207 45.2732 43.6714C45.1212 43.6543 44.9625 43.4561 44.8568 43.3052C44.587 42.924 44.3465 42.5207 44.0895 42.1295C44.0266 42.0349 43.9429 41.9534 43.7702 41.8972V43.7307C43.3361 43.6875 42.9662 43.6512 42.5962 43.614C42.5932 43.5828 42.5913 43.5507 42.5883 43.5195C42.5767 42.5036 42.5632 41.4888 42.5547 40.4729C42.5504 39.9921 42.5577 39.5104 42.5547 39.0296C42.5504 38.6202 42.5376 38.2109 42.5284 37.8015C42.5376 37.7925 42.5565 37.7804 42.5547 37.7743C42.5486 37.7522 42.5358 37.7311 42.5254 37.71Z" fill="#242B57"/>
<path d="M22.2574 42.0589C22.3601 42.7096 22.969 42.9873 23.57 42.6835C24.1461 42.3928 24.3903 42.4552 24.8518 43.0366C24.3594 43.6109 23.7255 43.811 22.99 43.7738C22.0282 43.7255 21.2258 43.113 21.0036 42.248C20.7714 41.3438 21.1491 40.347 21.8976 39.8904C22.987 39.2255 24.3285 39.5112 24.7999 40.5673C24.9714 40.9515 24.9823 41.4202 25.0102 41.8547C25.0302 42.1746 24.7421 42.1062 24.5498 42.1021C23.892 42.087 23.2332 42.0579 22.5754 42.0377C22.4707 42.0348 22.3651 42.0508 22.2574 42.0589ZM22.2206 41.2029C22.6999 41.2029 23.1335 41.211 23.568 41.1999C23.8302 41.1939 23.8441 40.9797 23.7076 40.8711C23.4873 40.697 23.2052 40.4969 22.9511 40.4979C22.6123 40.4999 22.2644 40.6749 22.2215 41.2019L22.2206 41.2029Z" fill="#242B57"/>
<path d="M16.3486 43.6929C16.3486 42.4205 16.3506 41.2206 16.3477 40.0197C16.3477 39.7903 16.4503 39.6817 16.6746 39.7079C17.0324 39.7491 17.4619 39.5349 17.6932 40.0297C18.1766 39.5399 18.7267 39.4373 19.3376 39.6395C19.9925 39.8567 20.1769 40.4139 20.2108 41.0084C20.2556 41.807 20.2317 42.6106 20.2197 43.4122C20.2187 43.5058 20.1201 43.6707 20.0553 43.6768C19.7563 43.7049 19.4503 43.708 19.1513 43.6748C19.0835 43.6667 18.9908 43.4776 18.9878 43.369C18.9719 42.8027 18.9858 42.2365 18.9779 41.6702C18.9759 41.5073 18.948 41.3423 18.9121 41.1824C18.8353 40.8404 18.638 40.6543 18.2653 40.6996C17.9134 40.7429 17.6742 40.9832 17.6662 41.3684C17.6533 42.0041 17.6483 42.6398 17.6692 43.2744C17.6792 43.5912 17.5985 43.7341 17.2577 43.6999C16.9755 43.6707 16.6875 43.6939 16.3497 43.6939L16.3486 43.6929Z" fill="#242B57"/>
<path d="M83.8211 42.1201C84.0177 42.788 84.688 43.0213 85.2491 42.617C85.5732 42.3837 86.257 42.5587 86.329 42.9298C86.3534 43.0576 86.1831 43.2708 86.0476 43.3754C85.3412 43.9215 84.102 43.8964 83.3755 43.3784C82.4555 42.7236 82.3114 41.3306 82.8944 40.4525C83.4396 39.6318 84.7949 39.2949 85.6917 39.7836C86.4603 40.2021 86.7032 41.1334 86.608 41.8878C86.5659 42.2187 86.268 42.101 86.0708 42.099C85.3449 42.091 84.6197 42.0638 83.8938 42.0447C83.8688 42.0699 83.8443 42.095 83.8199 42.1191L83.8211 42.1201ZM83.8101 41.2029C84.2607 41.2029 84.6703 41.2099 85.0787 41.1978C85.1734 41.1948 85.326 41.1435 85.3461 41.0812C85.3718 41.0007 85.3174 40.8317 85.2485 40.7965C85.0073 40.6728 84.743 40.5068 84.4908 40.5108C84.1581 40.5169 83.8681 40.711 83.8101 41.2029Z" fill="#242B57"/>
<path d="M7.42881 41.7398C7.42881 41.2278 7.45372 40.7139 7.42081 40.205C7.39389 39.7895 7.55738 39.6557 7.94406 39.7041C8.20321 39.7362 8.4982 39.6135 8.69356 39.9082C8.7145 39.9404 8.85003 39.9274 8.91083 39.8951C10.2733 39.1811 11.2201 39.6849 11.2969 41.1967C11.3337 41.9279 11.3019 42.6631 11.3088 43.3964C11.3108 43.6005 11.25 43.7172 11.0278 43.6961C11.0008 43.6931 10.9729 43.6961 10.945 43.6961C9.86563 43.6699 10.0002 43.863 9.99524 42.7617C9.99225 42.2548 10.0092 41.7458 9.98328 41.2399C9.96631 40.9211 9.80984 40.6807 9.43805 40.7008C9.07432 40.7199 8.77726 40.8577 8.75039 41.2661C8.7065 41.9259 8.67463 42.5887 8.6786 43.2495C8.68062 43.5804 8.60882 43.7122 8.24906 43.7031C7.42777 43.684 7.42777 43.7031 7.42777 42.8623C7.42777 42.4891 7.42777 42.115 7.42777 41.7418H7.42881V41.7398Z" fill="#242B57"/>
<path d="M87.3523 41.7139C87.3523 41.1477 87.359 40.5804 87.3492 40.0141C87.3449 39.7817 87.431 39.6812 87.6618 39.7054C87.9902 39.7395 88.3529 39.5947 88.6276 39.9145C88.6557 39.9467 88.8272 39.8904 88.9047 39.8361C89.8888 39.1491 91.0311 39.6399 91.1452 40.8439C91.2264 41.6928 91.2032 42.5508 91.2331 43.4047C91.2399 43.6179 91.1562 43.7094 90.9432 43.6974C90.7789 43.6873 90.6135 43.6944 90.4487 43.6933C90.0024 43.6924 89.9157 43.5867 89.9224 43.1371C89.9316 42.5477 89.9316 41.9573 89.9114 41.3679C89.9004 41.031 89.7912 40.7363 89.3834 40.7001C88.9957 40.6658 88.7039 40.8409 88.6587 41.2613C88.5928 41.8889 88.6099 42.5266 88.6007 43.1603C88.594 43.6924 88.6001 43.6974 88.058 43.6913C87.2485 43.6822 87.359 43.808 87.3498 42.9983C87.3449 42.5698 87.3498 42.1414 87.3498 41.7129L87.3523 41.7139Z" fill="#242B57"/>
<path d="M51.7796 43.3541C51.7998 42.803 51.8388 42.2518 51.8297 41.7006C51.826 41.4461 51.7906 41.1494 51.6533 40.9543C51.5464 40.8034 51.2308 40.6777 51.0605 40.726C50.8523 40.7853 50.5849 41.0147 50.544 41.2118C50.4475 41.6784 50.4634 42.1693 50.4463 42.651C50.4341 42.9789 50.4445 43.3079 50.4445 43.6961C50.0764 43.6961 49.751 43.7112 49.428 43.6851C49.3493 43.679 49.2192 43.5382 49.2186 43.4587C49.2058 42.2306 49.2095 41.0016 49.2095 39.7131C49.6539 39.7755 50.0855 39.5321 50.4775 39.8831C50.5251 39.9264 50.6948 39.868 50.787 39.8187C51.6417 39.3651 52.9261 39.5482 53.0037 40.7702C53.0598 41.6513 53.0629 42.5354 53.0855 43.4175C53.0873 43.4849 53.0726 43.6086 53.0549 43.6106C52.7338 43.6478 52.4109 43.6891 52.0891 43.6851C52.0043 43.684 51.9225 43.5322 51.8388 43.4497C51.8199 43.4175 51.7998 43.3863 51.7796 43.3541Z" fill="#242B57"/>
<path d="M69.0843 41.0516C68.9421 40.4733 68.3572 40.2792 67.7712 40.6011C67.2767 40.8716 67.1778 40.8465 66.8341 40.4441C66.6674 40.25 66.7144 40.0881 66.9006 40.0087C67.2608 39.8547 67.6363 39.73 68.0154 39.6315C68.1955 39.5842 68.4006 39.6445 68.5904 39.6204C69.552 39.5007 70.1918 40.1465 70.2485 41.1392C70.2913 41.8975 70.2717 42.6599 70.2546 43.4193C70.2528 43.5149 70.088 43.6909 70.0117 43.6838C69.7125 43.6567 69.4213 43.547 69.1222 43.5179C68.9519 43.5008 68.7608 43.5511 68.6002 43.6205C68.0154 43.8749 67.4488 43.8679 66.9159 43.5108C66.4257 43.1819 66.3518 42.6821 66.4782 42.152C66.5966 41.6531 66.9885 41.3976 67.4482 41.2971C67.9775 41.1814 68.5227 41.1331 69.0856 41.0516H69.0843ZM69.0776 41.977C68.6069 41.9016 68.1845 41.9247 67.8017 42.1932C67.5526 42.3682 67.5538 42.6137 67.8017 42.7866C68.1265 43.014 68.4519 42.9516 68.7644 42.7776C69.0636 42.6116 69.1613 42.3441 69.0776 41.977Z" fill="#242B57"/>
<path d="M35.8748 41.122C35.8919 40.6171 35.4383 40.3274 34.9182 40.4733C34.7747 40.5135 34.6392 40.5919 34.5098 40.6684C34.1301 40.8937 33.6514 40.6835 33.6105 40.2499C33.602 40.1594 33.6942 40.0176 33.7803 39.9653C34.5055 39.5207 35.312 39.5549 36.0995 39.6656C36.6349 39.741 37.0482 40.3545 37.0653 40.9701C37.0873 41.7717 37.0714 42.5744 37.08 43.376C37.083 43.5973 37.0171 43.7361 36.7772 43.6928C36.4908 43.6415 36.2112 43.552 35.9237 43.5138C35.7955 43.4967 35.641 43.5339 35.5232 43.5952C34.8376 43.9503 33.8676 43.7894 33.4981 43.2452C33.0247 42.5482 33.2778 41.651 34.069 41.3795C34.4896 41.2346 34.9481 41.1964 35.392 41.126C35.5495 41.1009 35.7155 41.122 35.8748 41.122ZM35.5531 41.9014C35.3083 41.9548 35.0708 41.9558 34.8944 42.0604C34.7222 42.162 34.4878 42.3772 34.4976 42.5291C34.519 42.852 34.8486 42.9585 35.1185 42.9183C35.3578 42.8831 35.6081 42.7453 35.7912 42.5824C35.9078 42.4788 35.9591 42.2424 35.9438 42.0745C35.9377 42.0041 35.6838 41.9558 35.5525 41.9025L35.5531 41.9014Z" fill="#242B57"/>
<path d="M37.9186 43.6928V39.7109C38.3551 39.7682 38.8026 39.5197 39.1585 39.9472C39.3886 39.8356 39.609 39.6887 39.8502 39.6204C40.8556 39.3327 41.6554 39.906 41.6932 40.953C41.7219 41.7536 41.6981 42.5563 41.7109 43.3569C41.7152 43.6023 41.6395 43.6928 41.3831 43.6988C40.4594 43.722 40.4594 43.7311 40.4582 42.8007C40.4582 42.3722 40.4619 41.9437 40.4564 41.5153C40.4484 40.9822 40.2342 40.6996 39.8483 40.6955C39.385 40.6915 39.1396 40.9651 39.1347 41.5082C39.1298 42.1298 39.1267 42.7524 39.1365 43.374C39.1396 43.5983 39.0748 43.7069 38.8337 43.6948C38.5468 43.6808 38.2586 43.6918 37.918 43.6918L37.9186 43.6928Z" fill="#242B57"/>
<path d="M96.384 40.8429C96.6349 40.9726 96.8425 41.1034 97.0672 41.191C97.2827 41.2744 97.5171 41.3096 97.7399 41.375C98.2259 41.5178 98.5104 41.8467 98.5757 42.3476C98.6392 42.8445 98.3809 43.2025 98.0061 43.4701C97.3437 43.9438 96.0458 43.8513 95.3193 43.453C95.2754 43.4288 95.2107 43.3514 95.2186 43.3373C95.3761 43.0748 95.5245 42.8023 95.7198 42.5699C95.7717 42.5085 95.9781 42.5588 96.1075 42.587C96.3688 42.6423 96.6221 42.7469 96.884 42.772C97.0018 42.7831 97.1331 42.6544 97.2589 42.589C97.1551 42.4753 97.0714 42.3094 96.9426 42.2581C96.6527 42.1414 96.3328 42.1042 96.0397 41.9946C95.4451 41.7713 95.1869 41.4534 95.215 40.9496C95.2455 40.3833 95.508 39.9367 96.0458 39.7195C96.7638 39.4298 97.4683 39.5052 98.152 39.8653C98.3748 39.983 98.362 40.1208 98.2472 40.3018C98.0055 40.683 97.6514 40.7856 97.2338 40.6056C96.9469 40.4819 96.6789 40.4979 96.3846 40.8439L96.384 40.8429Z" fill="#242B57"/>
<path d="M93.6351 40.6992C93.6351 41.2181 93.6144 41.6738 93.6412 42.1254C93.6638 42.5096 93.9697 42.7369 94.3518 42.6987C94.4715 42.6867 94.5887 42.6544 94.7841 42.6162C94.7841 42.9421 94.803 43.2398 94.7725 43.5325C94.7633 43.616 94.6058 43.7528 94.5228 43.7478C94.0228 43.7166 93.5124 43.7005 93.0301 43.5828C92.6364 43.4863 92.4587 43.1443 92.4679 42.7168C92.4789 42.1636 92.4599 41.6094 92.4746 41.0572C92.4819 40.7917 92.3983 40.6841 92.1242 40.6891C91.9776 40.6921 91.7176 40.6307 91.7017 40.5563C91.6474 40.3089 91.6626 40.0393 91.6974 39.7849C91.7035 39.7406 91.9398 39.6984 92.0662 39.7074C92.3684 39.7286 92.51 39.6189 92.4758 39.3061C92.4666 39.2236 92.474 39.1402 92.4721 39.0577C92.4642 38.6594 92.662 38.4606 93.0668 38.4612C93.4508 38.4612 93.6394 38.652 93.6321 39.0335C93.6211 39.634 93.6809 39.6883 94.281 39.7054C94.4452 39.7105 94.7322 39.7466 94.748 39.8171C94.8042 40.0645 94.7804 40.336 94.7511 40.5935C94.7462 40.6388 94.5741 40.6891 94.4764 40.6951C94.2169 40.7092 93.9581 40.7002 93.6339 40.7002L93.6351 40.6992Z" fill="#242B57"/>
<path d="M12.1543 43.6973V37.4683C12.5111 37.4683 12.851 37.4452 13.1839 37.4855C13.2626 37.4955 13.3692 37.7208 13.3703 37.8485C13.3822 39.3673 13.3772 40.8851 13.3772 42.4038C13.3772 42.7347 13.3712 43.0666 13.3802 43.3975C13.3852 43.5997 13.3284 43.7084 13.1042 43.7003C12.8042 43.6892 12.5031 43.6973 12.1543 43.6973Z" fill="#242B57"/>
<path d="M14.2795 39.6729C14.4469 39.684 14.5406 39.6919 14.6333 39.6969C15.2213 39.7291 15.5154 40.0494 15.5154 40.6576C15.5154 41.5537 15.5084 42.4499 15.5224 43.3461C15.5263 43.6146 15.4416 43.7022 15.1706 43.7032C14.2745 43.7052 14.2755 43.7152 14.2775 42.8161C14.2795 41.9199 14.2775 41.0236 14.2775 40.1274C14.2775 39.9936 14.2775 39.859 14.2775 39.6739L14.2795 39.6729Z" fill="#242B57"/>
<path d="M47.1392 39.742C47.9658 39.6528 48.3785 39.9894 48.3779 40.7518C48.3779 41.6098 48.3669 42.4677 48.3828 43.3257C48.3889 43.6214 48.2863 43.7008 48.0018 43.7008C47.1319 43.6998 47.1331 43.7109 47.1349 42.8238C47.1368 41.9377 47.1368 41.0526 47.1392 40.1664C47.1392 40.0317 47.1392 39.8969 47.1392 39.742Z" fill="#242B57"/>
<path d="M14.9004 39.1265C14.4857 39.1315 14.1249 38.7835 14.127 38.3822C14.129 38.0462 14.5027 37.7053 14.8695 37.7053C15.3399 37.7053 15.607 37.9738 15.605 38.4455C15.603 38.8509 15.3239 39.1204 14.9004 39.1254V39.1265Z" fill="#242B57"/>
<path d="M48.4675 38.4069C48.4736 38.8373 48.1793 39.133 47.7502 39.13C47.3515 39.127 46.9877 38.786 46.9883 38.4179C46.9895 38.0176 47.3155 37.7068 47.7319 37.7078C48.1836 37.7088 48.4614 37.9743 48.4675 38.4069Z" fill="#242B57"/>
<path d="M83.8203 42.1199C83.8447 42.095 83.8697 42.07 83.8934 42.0461C83.8684 42.071 83.8441 42.096 83.8203 42.1199Z" fill="#242B57"/>
<path d="M42.5254 37.71C42.5357 37.7312 42.5485 37.7513 42.5546 37.7734C42.5565 37.7794 42.5376 37.7915 42.5284 37.8005C42.5284 37.7704 42.5266 37.7402 42.5266 37.71H42.5254Z" fill="#242B57"/>
<path d="M61.6074 43.6023C61.6312 43.6295 61.6549 43.6566 61.6799 43.6838C61.6562 43.6566 61.6324 43.6295 61.6074 43.6023Z" fill="#242B57"/>
</svg>
