<svg width="201" height="81" viewBox="0 0 201 81" fill="none" xmlns="http://www.w3.org/2000/svg">
<g clip-path="url(#clip0_6258_3730)">
<path d="M161.579 55.7872C161.579 56.4097 161.579 57.0336 161.579 57.6561C161.58 58.2335 161.291 58.616 160.764 58.808C160.063 59.064 159.35 59.0626 158.65 58.8066C158.188 58.6379 157.913 58.3106 157.884 57.7958C157.808 56.4751 157.868 55.1545 157.849 53.8339C157.844 53.495 158.061 53.4965 158.303 53.4965C158.547 53.4965 158.752 53.5052 158.749 53.8412C158.74 54.9043 158.745 55.9675 158.749 57.0307C158.749 57.2445 158.754 57.4612 158.787 57.6721C158.868 58.187 159.177 58.4081 159.756 58.3935C160.293 58.379 160.611 58.1201 160.655 57.6198C160.687 57.2562 160.68 56.8896 160.681 56.5246C160.684 55.6548 160.681 54.7851 160.684 53.9139C160.686 53.5328 160.728 53.4979 161.119 53.4965C161.544 53.4965 161.58 53.5241 161.583 53.9153C161.588 54.5378 161.583 55.1618 161.583 55.7843C161.58 55.7843 161.577 55.7843 161.576 55.7843L161.579 55.7872Z" fill="#172049"/>
<path d="M128.356 55.7872C128.356 56.3238 128.359 56.862 128.356 57.3987C128.349 58.3557 128.011 58.7658 127.066 58.9389C126.607 59.0233 126.145 59.0102 125.689 58.8996C124.966 58.7222 124.635 58.328 124.62 57.5717C124.601 56.5842 124.613 55.5952 124.611 54.6076C124.611 54.3502 124.619 54.0913 124.611 53.8339C124.606 53.607 124.696 53.5066 124.931 53.4979C125.483 53.4775 125.516 53.5008 125.518 54.0535C125.519 55.1807 125.512 56.3093 125.524 57.4365C125.531 58.1142 125.865 58.4182 126.536 58.3949C127.112 58.3746 127.41 58.0895 127.437 57.4787C127.46 56.9318 127.447 56.3835 127.448 55.8352C127.448 55.233 127.448 54.6323 127.448 54.0302C127.448 53.5168 127.464 53.4993 127.893 53.4993C128.34 53.4993 128.355 53.5153 128.356 54.0477C128.356 54.628 128.356 55.2083 128.356 55.7872Z" fill="#172049"/>
<path d="M176.738 58.9971C176.535 58.9796 176.33 58.9782 176.13 58.9418C175.243 58.7804 174.854 58.283 174.891 57.387C174.898 57.1994 174.978 57.1238 175.164 57.1093C175.688 57.07 175.713 57.0845 175.82 57.6605C175.916 58.1753 176.17 58.3833 176.715 58.395C177.329 58.4081 177.683 58.1899 177.789 57.7332C177.875 57.3652 177.738 57.0554 177.383 56.8344C176.907 56.5377 176.375 56.3544 175.88 56.0941C175.442 55.8628 175.112 55.5516 175.03 55.0323C174.923 54.3546 175.225 53.8004 175.873 53.5852C176.51 53.3728 177.163 53.3641 177.809 53.5561C178.363 53.7204 178.672 54.2237 178.605 54.8025C178.592 54.9189 178.56 55.0251 178.427 55.0323C178.246 55.044 178.062 55.0454 177.882 55.0323C177.729 55.0207 177.715 54.8898 177.703 54.7676C177.672 54.4462 177.56 54.1771 177.219 54.0797C176.839 53.972 176.465 53.9866 176.149 54.2469C175.812 54.5247 175.845 55.0323 176.204 55.3508C176.434 55.5545 176.719 55.6592 176.99 55.7901C177.329 55.953 177.68 56.0941 178.008 56.2744C178.558 56.5784 178.771 57.0729 178.713 57.6823C178.653 58.3092 178.301 58.6989 177.697 58.8735C177.384 58.9636 177.066 58.9971 176.74 58.9986L176.738 58.9971Z" fill="#172049"/>
<path d="M117.346 58.9825C117.075 58.9927 116.809 58.9738 116.546 58.9069C115.791 58.7149 115.401 58.1288 115.508 57.3594C115.53 57.2081 115.593 57.1223 115.75 57.1151C116.378 57.086 116.402 57.1136 116.425 57.6328C116.445 58.107 116.716 58.3513 117.189 58.3877C117.357 58.4008 117.534 58.3877 117.701 58.36C118.075 58.2961 118.326 58.091 118.395 57.6983C118.459 57.3332 118.316 57.0132 117.947 56.8169C117.426 56.5391 116.886 56.2977 116.362 56.0242C115.794 55.7275 115.561 55.2447 115.629 54.6091C115.679 54.1524 115.9 53.8106 116.326 53.6433C117.052 53.3583 117.797 53.3394 118.533 53.6041C119.003 53.7728 119.292 54.3604 119.188 54.8432C119.167 54.9349 119.128 54.9974 119.036 55.0309C118.648 55.1734 118.35 55.0134 118.278 54.6193C118.223 54.3109 118.043 54.1204 117.737 54.0506C117.501 53.9968 117.266 54.0142 117.037 54.0855C116.533 54.2411 116.359 54.8083 116.688 55.2258C116.825 55.3988 117.007 55.5123 117.203 55.6054C117.641 55.8119 118.086 56.001 118.516 56.2235C119.132 56.5449 119.403 57.0845 119.307 57.7376C119.211 58.3833 118.82 58.7687 118.117 58.9185C117.862 58.9724 117.606 58.9898 117.347 58.9825H117.346Z" fill="#172049"/>
<path d="M155.195 58.9825C154.903 58.9956 154.615 58.9695 154.334 58.8851C153.625 58.6728 153.254 58.0648 153.381 57.339C153.404 57.2009 153.47 57.1369 153.608 57.1136C154.121 57.0278 154.236 57.1092 154.287 57.6168C154.335 58.0983 154.593 58.3528 155.077 58.3891C155.259 58.4037 155.441 58.395 155.621 58.3499C155.982 58.2611 156.213 58.0517 156.267 57.6779C156.32 57.31 156.187 57.0133 155.857 56.8387C155.364 56.5784 154.857 56.3398 154.356 56.0941C153.753 55.8003 153.439 55.3436 153.499 54.6513C153.541 54.164 153.766 53.8077 154.217 53.6332C154.933 53.3554 155.669 53.3394 156.394 53.5968C156.872 53.767 157.155 54.3255 157.057 54.8272C157.043 54.9043 157.021 54.9698 156.947 55.0105C156.622 55.1923 156.212 54.996 156.148 54.6251C156.096 54.3167 155.921 54.1204 155.615 54.0491C155.335 53.9837 155.057 54.0084 154.795 54.1218C154.377 54.3037 154.261 54.8389 154.549 55.2112C154.684 55.3857 154.865 55.5006 155.061 55.5937C155.508 55.8046 155.963 55.9981 156.401 56.2279C157.009 56.5464 157.277 57.1005 157.172 57.7521C157.07 58.3819 156.68 58.7644 155.997 58.9113C155.732 58.968 155.466 58.9855 155.195 58.9767V58.9825Z" fill="#172049"/>
<path d="M181.01 58.9811C180.729 58.9942 180.451 58.9709 180.179 58.8953C179.444 58.6917 179.066 58.1012 179.181 57.3507C179.204 57.1965 179.279 57.1209 179.431 57.1136C180.035 57.0903 180.082 57.102 180.101 57.6387C180.117 58.0997 180.38 58.3382 180.835 58.3862C181.027 58.4066 181.221 58.4037 181.411 58.3528C181.822 58.2437 182.027 58.0357 182.072 57.6576C182.117 57.2867 181.969 57.0002 181.64 56.8285C181.116 56.5551 180.579 56.3079 180.054 56.0359C179.472 55.7348 179.228 55.2505 179.302 54.6004C179.354 54.1437 179.577 53.8048 180.006 53.639C180.733 53.3568 181.478 53.3379 182.213 53.607C182.679 53.7772 182.972 54.3778 182.859 54.8491C182.843 54.9145 182.821 54.9698 182.761 55.0076C182.459 55.1996 182.012 55.0003 181.951 54.644C181.886 54.2688 181.666 54.068 181.275 54.0259C180.787 53.9735 180.384 54.1495 180.252 54.4709C180.108 54.8214 180.22 55.1792 180.575 55.425C180.966 55.697 181.419 55.8483 181.846 56.049C182.147 56.1915 182.454 56.3268 182.676 56.5915C183.311 57.3536 182.969 58.5404 182.028 58.8517C181.698 58.9607 181.356 58.9942 181.01 58.9796V58.9811Z" fill="#172049"/>
<path d="M166.992 56.2235C166.992 55.7624 166.979 55.2999 166.995 54.8389C167.021 54.0986 167.362 53.687 168.079 53.5154C168.633 53.383 169.189 53.3917 169.736 53.5532C170.327 53.7277 170.608 54.1684 170.548 54.7763C170.532 54.9407 170.468 55.0265 170.296 55.0483C169.807 55.1123 169.723 55.0556 169.629 54.5582C169.582 54.3153 169.448 54.1553 169.21 54.0753C168.476 53.8295 167.9 54.2106 167.891 54.9727C167.881 55.8323 167.881 56.6904 167.899 57.5499C167.909 58.1244 168.179 58.3804 168.731 58.395C169.269 58.4095 169.56 58.1535 169.633 57.6008C169.682 57.2183 170.069 57.0249 170.421 57.2038C170.512 57.2489 170.531 57.326 170.545 57.4147C170.656 58.1143 170.254 58.7324 169.563 58.9026C169.054 59.0276 168.54 59.0262 168.03 58.9098C167.406 58.7673 167.024 58.3222 166.998 57.6765C166.978 57.1936 166.994 56.7107 166.994 56.2264L166.992 56.2235Z" fill="#172049"/>
<path d="M162.542 56.2104C162.542 55.7494 162.529 55.2868 162.545 54.8258C162.57 54.1131 162.894 53.7117 163.579 53.5299C164.142 53.3801 164.71 53.3903 165.267 53.5474C165.866 53.7161 166.138 54.1378 166.099 54.7574C166.085 54.9843 165.97 55.0672 165.767 55.0469C165.556 55.025 165.268 55.1676 165.2 54.8011C165.066 54.0971 164.644 53.8586 163.952 54.0913C163.643 54.1946 163.453 54.404 163.45 54.7283C163.441 55.7159 163.438 56.7035 163.457 57.691C163.466 58.107 163.731 58.3368 164.163 58.3877C164.647 58.4444 164.995 58.2612 165.12 57.8699C165.159 57.7492 165.18 57.6183 165.186 57.4903C165.197 57.2634 165.306 57.1747 165.533 57.1689C166.069 57.1543 166.128 57.2081 166.09 57.7477C166.051 58.3106 165.734 58.7193 165.188 58.8749C164.63 59.0349 164.061 59.0335 163.501 58.8851C162.914 58.7295 162.567 58.2844 162.544 57.659C162.526 57.1761 162.541 56.6933 162.541 56.209L162.542 56.2104Z" fill="#172049"/>
<path d="M134.628 56.1479C134.64 56.6729 134.587 57.2009 134.67 57.723C134.737 58.1434 134.989 58.3615 135.444 58.3906C135.936 58.4226 136.241 58.2263 136.352 57.8045C136.38 57.7012 136.406 57.5936 136.407 57.4874C136.412 57.2562 136.522 57.1732 136.749 57.166C137.3 57.15 137.389 57.2416 137.305 57.7972C137.2 58.4939 136.774 58.8749 135.974 58.9637C135.578 59.0073 135.179 58.9956 134.788 58.9055C134.194 58.7688 133.823 58.379 133.771 57.7681C133.682 56.7296 133.684 55.6883 133.774 54.6484C133.82 54.1146 134.116 53.751 134.622 53.5794C135.251 53.367 135.892 53.367 136.524 53.5619C137.084 53.735 137.347 54.1524 137.321 54.74C137.312 54.9334 137.244 55.0309 137.037 55.0469C136.544 55.0861 136.502 55.0614 136.397 54.5655C136.34 54.2993 136.183 54.1306 135.918 54.055C135.182 53.8455 134.653 54.2222 134.629 54.9843C134.618 55.3698 134.628 55.7566 134.628 56.1435V56.1479Z" fill="#172049"/>
<path d="M172.899 58.9142C172.502 58.9142 172.103 58.9084 171.706 58.9157C171.472 58.92 171.38 58.8138 171.38 58.5855C171.384 56.9958 171.384 55.4076 171.38 53.8179C171.38 53.5794 171.491 53.4965 171.716 53.4979C172.49 53.5037 173.263 53.5023 174.037 53.4979C174.243 53.4979 174.363 53.5677 174.36 53.7961C174.357 54.0288 174.22 54.084 174.024 54.084C173.561 54.084 173.1 54.0899 172.637 54.0855C172.397 54.0826 172.279 54.1786 172.286 54.4302C172.295 54.7836 172.294 55.1385 172.286 55.4934C172.282 55.7232 172.383 55.8265 172.614 55.8235C173.011 55.8177 173.408 55.8235 173.807 55.825C174.016 55.825 174.235 55.8134 174.227 56.1246C174.221 56.4359 173.996 56.4111 173.792 56.414C173.405 56.4184 173.018 56.4213 172.631 56.4169C172.391 56.4155 172.278 56.5144 172.284 56.7646C172.292 57.1616 172.295 57.5587 172.284 57.9557C172.275 58.2408 172.407 58.3339 172.673 58.3281C173.135 58.3193 173.597 58.3281 174.06 58.3281C174.265 58.3281 174.421 58.3659 174.421 58.6233C174.421 58.8837 174.261 58.9157 174.058 58.9142C173.672 58.9113 173.285 58.9142 172.898 58.9142H172.899Z" fill="#172049"/>
<path d="M138.154 56.1741C138.154 55.4221 138.166 54.6702 138.149 53.9197C138.141 53.5925 138.266 53.4877 138.584 53.495C139.302 53.511 140.022 53.5008 140.743 53.4994C140.951 53.4994 141.132 53.511 141.13 53.7975C141.127 54.0855 140.935 54.087 140.732 54.0884C140.292 54.0884 139.852 54.0942 139.411 54.0884C139.173 54.0855 139.054 54.1786 139.059 54.4302C139.068 54.7735 139.07 55.1182 139.059 55.4614C139.051 55.7203 139.154 55.8337 139.419 55.8279C139.826 55.8177 140.235 55.8279 140.644 55.8279C140.849 55.8279 141.004 55.8672 141.002 56.1261C140.999 56.3864 140.834 56.417 140.635 56.417C140.226 56.417 139.819 56.4228 139.41 56.4199C139.171 56.4184 139.055 56.5144 139.061 56.766C139.071 57.1733 139.07 57.582 139.061 57.9892C139.055 58.2408 139.173 58.3324 139.413 58.331C139.886 58.3252 140.359 58.3324 140.831 58.331C141.034 58.331 141.194 58.3601 141.195 58.6219C141.197 58.8808 141.045 58.9186 140.839 58.9186C140.065 58.9157 139.292 58.9128 138.518 58.92C138.256 58.9229 138.152 58.8211 138.154 58.5593C138.163 57.7652 138.157 56.9696 138.157 56.1755L138.154 56.1741Z" fill="#172049"/>
<path d="M148.283 56.209C148.283 55.4352 148.292 54.6629 148.279 53.8892C148.274 53.5954 148.386 53.4892 148.677 53.495C149.386 53.5081 150.096 53.5008 150.804 53.4979C151.012 53.4979 151.194 53.5096 151.19 53.7961C151.185 54.0855 150.993 54.0855 150.793 54.0855C150.374 54.0855 149.955 54.0913 149.536 54.0855C149.293 54.0826 149.182 54.183 149.189 54.4331C149.2 54.788 149.198 55.1414 149.189 55.4963C149.185 55.7319 149.293 55.8235 149.521 55.8206C149.94 55.8148 150.359 55.8221 150.778 55.8206C150.969 55.8206 151.117 55.8541 151.123 56.0955C151.129 56.3457 150.995 56.4082 150.78 56.4068C150.382 56.4039 149.984 56.417 149.587 56.4068C149.301 56.398 149.178 56.5042 149.185 56.8024C149.2 57.3609 149.191 57.9194 149.188 58.4779C149.185 58.8866 149.156 58.9127 148.744 58.9142C148.312 58.9142 148.283 58.8909 148.282 58.4633C148.279 57.7114 148.282 56.9595 148.282 56.2075L148.283 56.209Z" fill="#172049"/>
<path d="M81.6368 37.8744C82.4893 34.5438 83.3447 31.2146 84.1915 27.8825C84.3311 27.3313 84.4781 26.7786 84.4883 26.2041C84.497 25.6354 84.2642 25.3184 83.7085 25.1817C83.4597 25.1191 83.2007 25.0915 82.9432 25.0769C82.7192 25.0638 82.5897 24.9809 82.6173 24.7468C82.6435 24.5184 82.4806 24.1926 82.8996 24.1476C83.6372 24.069 84.3733 23.9934 85.1109 23.9119C86.9717 23.7083 88.8179 23.4233 90.6495 23.0407C91.0641 22.9549 91.0918 22.9811 90.9899 23.3883C89.103 30.8452 87.2146 38.302 85.3277 45.7589C85.2564 46.0396 85.172 46.3203 85.2055 46.6156C85.2346 46.8832 85.3219 47.1217 85.591 47.2424C85.8689 47.3675 86.0988 47.2497 86.2995 47.0722C86.7898 46.6403 87.1637 46.1036 87.4489 45.5306C87.6423 45.1422 87.5609 44.6652 87.6293 44.2303C88.1195 41.0858 89.3983 38.2962 91.4133 35.8426C92.4797 34.5453 93.6916 33.4137 95.1973 32.6312C96.3219 32.0466 97.5047 31.7542 98.7763 31.9389C100.036 32.1222 100.826 32.8538 101.204 34.0522C101.247 34.1846 101.286 34.3184 101.33 34.4522C101.335 34.4696 101.356 34.4827 101.376 34.5045C101.495 34.4522 101.485 34.3315 101.51 34.2355C101.635 33.757 101.759 33.2785 101.872 32.7985C101.919 32.6021 102.019 32.5003 102.226 32.5003C103.785 32.5018 105.343 32.5003 106.903 32.5003C106.989 32.5003 107.117 32.4989 107.137 32.5745C107.214 32.8654 107.415 32.7767 107.598 32.7505C109.056 32.5425 110.514 32.336 111.97 32.1265C112.533 32.0451 112.667 32.1004 112.917 32.6109C113.328 33.4457 113.55 34.3446 113.773 35.2419C114.407 37.809 114.825 40.4197 115.321 43.0158C115.434 43.6063 115.543 44.1983 115.66 44.7888C115.68 44.8892 115.676 45.0041 115.767 45.0811C115.878 45.0651 115.891 44.9677 115.926 44.8964C116.68 43.3635 117.426 41.8261 118.079 40.2452C118.334 39.6285 118.549 39.0002 118.693 38.3471C118.817 37.7814 118.696 37.3029 118.277 36.9058C118.05 36.692 117.811 36.4927 117.571 36.2935C116.674 35.5445 116.413 34.6194 116.793 33.5184C117.131 32.5411 118.025 31.9229 119.124 31.8938C119.658 31.8793 120.177 31.9258 120.659 32.1804C120.747 32.2269 120.827 32.2254 120.932 32.1993C123.907 31.4444 125.796 29.4184 127.221 26.8484C127.383 26.5575 127.554 26.2681 127.68 25.9612C127.815 25.6253 128.014 25.4929 128.388 25.5089C129.063 25.538 129.062 25.5147 128.9 26.1867C128.475 27.9625 128.051 29.7384 127.627 31.5157C127.541 31.8778 127.559 31.8997 127.937 31.9011C128.721 31.904 129.507 31.9098 130.291 31.8982C130.575 31.8938 130.653 31.9913 130.582 32.2647C130.278 33.4312 130.525 33.229 129.383 33.2479C128.803 33.2566 128.222 33.2479 127.642 33.2494C127.293 33.2494 127.076 33.4147 126.991 33.7453C126.133 37.1181 125.273 40.491 124.421 43.8652C124.203 44.7292 123.939 45.5829 123.807 46.4672C123.768 46.7348 123.756 47.0024 123.808 47.2686C123.954 48.0133 124.501 48.3289 125.224 48.086C125.598 47.9609 125.913 47.7369 126.206 47.4795C126.871 46.8963 127.451 46.233 128.005 45.5466C128.112 45.4142 128.154 45.2702 128.163 45.1015C128.372 41.1324 129.916 37.761 132.764 35.002C134.394 33.4224 136.32 32.3825 138.597 32.0596C139.433 31.9418 140.268 31.9389 141.099 32.1033C143.322 32.544 144.41 34.2704 143.862 36.4869C143.566 37.6825 142.862 38.6177 141.944 39.4016C140.226 40.8677 138.195 41.6865 136.03 42.2145C134.817 42.5112 133.585 42.6988 132.341 42.802C132.14 42.818 131.995 42.8733 131.944 43.0973C131.726 44.079 131.595 45.0739 131.737 46.0716C132.012 47.9958 133.668 49.0663 135.623 48.6198C136.695 48.3754 137.657 47.8693 138.6 47.3282C139.742 46.6737 140.783 45.8782 141.8 45.0477C141.991 44.8921 142.032 44.7088 142.027 44.4805C141.969 40.8095 143.396 37.7435 145.92 35.1663C147.617 33.4355 149.68 32.3447 152.115 32.0655C153.356 31.9229 154.587 31.9898 155.745 32.5411C157.201 33.2348 157.968 34.6674 157.638 36.1233C157.46 36.9102 156.99 37.4818 156.229 37.7654C155.614 37.9952 154.996 37.985 154.463 37.537C153.9 37.0614 153.809 36.4287 153.935 35.7452C154.018 35.2957 154.267 34.9074 154.444 34.4944C154.715 33.8646 154.553 33.5286 153.883 33.3526C153.18 33.1679 152.49 33.2828 151.82 33.5024C150.401 33.9664 149.296 34.8725 148.405 36.0419C146.933 37.9777 145.982 40.1404 145.669 42.565C145.525 43.6834 145.529 44.7961 145.9 45.8796C146.681 48.1587 149.006 49.1943 151.213 48.2329C152.732 47.5711 153.942 46.4977 155.031 45.2731C155.166 45.1204 155.29 44.9575 155.425 44.8033C156.212 43.9089 156.707 42.8922 157.018 41.7258C158.268 37.0338 159.586 32.3593 160.876 27.6775C161.004 27.2106 161.109 26.7393 161 26.2477C160.923 25.906 160.729 25.7009 160.379 25.6383C159.868 25.5482 159.352 25.5482 158.837 25.5278C158.525 25.5162 158.212 25.5264 157.901 25.522C157.805 25.522 157.671 25.5365 157.639 25.4405C157.55 25.1715 157.686 24.9184 157.745 24.661C157.78 24.5053 157.914 24.4879 158.051 24.4806C160.028 24.3715 161.954 24.0167 163.812 23.32C164.163 23.1891 164.537 23.2516 164.9 23.2691C165.136 23.2807 165.04 23.4654 165.005 23.5891C164.758 24.501 164.505 25.4129 164.253 26.3234C163.104 30.4758 161.954 34.6267 160.806 38.7791C160.773 38.8998 160.713 39.0191 160.745 39.1733C160.904 39.1311 160.979 39.0074 161.074 38.9144C162.868 37.1152 164.75 35.4179 166.853 33.9809C167.867 33.2886 168.919 32.6603 170.088 32.2589C170.56 32.0975 171.041 32.016 171.542 32.0073C172.771 31.9884 173.315 32.7185 173.221 33.9533C173.181 34.4784 173.049 34.9918 172.899 35.4979C171.869 38.9798 170.835 42.4617 169.803 45.9436C169.645 46.4803 169.502 47.0213 169.508 47.5871C169.515 48.2314 170.039 48.5383 170.581 48.198C171.444 47.6569 172.192 46.9806 172.855 46.2098C173.148 45.8709 173.516 45.9247 173.715 46.3334C173.769 46.4425 173.721 46.521 173.658 46.5967C172.458 48.0278 171.195 49.3892 169.482 50.2284C168.743 50.5891 167.966 50.7825 167.138 50.5978C166.282 50.4073 165.83 49.7629 165.927 48.8903C166.01 48.1471 166.287 47.4533 166.493 46.7435C167.448 43.474 168.415 40.2088 169.378 36.9422C169.479 36.6018 169.569 36.2586 169.611 35.9052C169.701 35.1634 169.221 34.7067 168.479 34.8274C168.082 34.8914 167.718 35.0514 167.365 35.239C166.239 35.8412 165.244 36.6265 164.282 37.457C163.249 38.35 162.22 39.2474 161.333 40.2932C160.6 41.1571 160.066 42.1243 159.76 43.2224C159.106 45.5713 158.429 47.9144 157.776 50.2647C157.689 50.5789 157.558 50.6909 157.223 50.6749C156.442 50.6356 155.658 50.5309 154.875 50.6618C154.591 50.7098 154.545 50.592 154.617 50.3374C154.89 49.3877 155.148 48.4336 155.409 47.4795C155.442 47.3588 155.503 47.2395 155.469 47.0766C155.301 47.1072 155.234 47.2511 155.143 47.3515C153.726 48.9048 152.069 50.0713 149.969 50.4931C148.535 50.781 147.1 50.8043 145.717 50.2414C144.16 49.6059 143.115 48.454 142.493 46.9064C142.395 46.6631 142.247 46.6214 142.049 46.7814C140.465 48.0671 138.792 49.2103 136.874 49.952C135.336 50.5483 133.748 50.845 132.102 50.6138C130.103 50.3331 128.889 49.1521 128.374 47.2191C128.344 47.1101 128.372 46.9399 128.246 46.9123C128.123 46.8846 128.064 47.0432 127.991 47.1304C127.138 48.1631 126.203 49.107 125.081 49.8502C124.511 50.2269 123.903 50.5091 123.219 50.6225C121.737 50.8683 120.548 49.9113 120.472 48.4074C120.432 47.5929 120.567 46.8017 120.768 46.0178C121.812 41.9265 122.858 37.8366 123.903 33.7453C124.029 33.2479 124.026 33.245 123.503 33.245C122.986 33.245 122.471 33.2465 121.955 33.245C121.774 33.245 121.651 33.2915 121.718 33.5083C122.083 34.6951 121.777 35.831 121.428 36.9523C120.72 39.2285 119.709 41.3782 118.609 43.4856C117.013 46.5457 115.308 49.5448 113.293 52.3547C112.138 53.9662 110.897 55.505 109.295 56.7064C108.135 57.5761 106.872 58.1841 105.375 58.1361C104.846 58.1186 104.326 58.0386 103.833 57.8365C102.722 57.3798 102.178 56.4679 102.29 55.249C102.387 54.1989 103.221 53.3277 104.316 53.1052C105.083 52.9496 105.793 53.0979 106.459 53.4775C106.88 53.7161 107.275 53.9982 107.693 54.2397C108.332 54.6076 108.726 54.5596 109.257 54.039C110.176 53.1372 110.776 52.1118 110.62 50.7461C110.542 50.0538 110.499 49.3542 110.395 48.6648C109.824 44.8833 109.216 41.1076 108.343 37.3814C108.167 36.628 107.984 35.8761 107.692 35.1561C107.565 34.8463 107.425 34.5409 107.163 34.3184C106.883 34.0798 106.787 34.1104 106.689 34.4667C106.078 36.7051 105.469 38.9449 104.86 41.1847C104.402 42.8748 103.918 44.5575 103.555 46.2723C103.507 46.4963 103.49 46.7203 103.535 46.9443C103.643 47.4766 104.014 47.6497 104.492 47.3937C104.792 47.2337 105.023 46.9937 105.242 46.7406C105.645 46.2767 105.973 45.7574 106.309 45.2469C106.449 45.0346 106.565 45.0041 106.766 45.1699C107.485 45.7633 107.435 45.548 106.987 46.2854C106.215 47.558 105.358 48.7681 104.142 49.6684C102.927 50.5672 101.577 50.8988 100.09 50.5876C98.8825 50.336 98.2336 49.5128 98.2103 48.278C98.1958 47.4999 98.3631 46.7435 98.4635 45.9349C98.2976 46.0178 98.2642 46.1574 98.2001 46.265C97.3883 47.6235 96.4529 48.8743 95.1013 49.7528C93.744 50.6341 92.2629 50.9076 90.6888 50.56C89.2354 50.2385 88.2999 49.3106 87.8053 47.9216C87.7733 47.83 87.7456 47.7369 87.7151 47.6453C87.6918 47.5755 87.6889 47.4809 87.6074 47.4591C87.5041 47.4315 87.4605 47.5289 87.411 47.5944C87.0008 48.1354 86.557 48.6459 86.0624 49.1099C85.2171 49.9055 84.2671 50.5149 83.0916 50.6865C82.546 50.7665 81.9976 50.7578 81.4578 50.6225C80.195 50.3069 79.4341 49.2946 79.3774 47.8896C79.3352 46.8294 79.6494 45.8287 79.8619 44.8121C79.9841 44.2274 80.1383 43.6485 80.2939 43.0057C80.131 43.1104 80.1077 43.2282 80.0612 43.3256C79.1097 45.2877 77.9007 47.0635 76.2626 48.5238C74.7772 49.8473 73.0663 50.6472 71.0484 50.6952C70.0126 50.72 69.0393 50.4858 68.1809 49.8851C67.9292 49.7091 67.8463 49.7717 67.7765 50.0436C67.4244 51.4166 67.0549 52.7867 66.6999 54.1597C66.5777 54.6295 66.5239 55.1109 66.5515 55.5966C66.5864 56.2381 66.8628 56.5798 67.4841 56.7486C67.807 56.8358 68.1358 56.8925 68.469 56.9056C68.7163 56.9158 68.8196 57.0293 68.8065 57.2692C68.8007 57.3871 68.8036 57.5049 68.8007 57.6241C68.7978 57.7943 68.709 57.8801 68.5403 57.8845C68.4442 57.8874 68.3468 57.8903 68.2508 57.8903C65.1752 57.8903 62.1011 57.8903 59.0256 57.8874C58.8525 57.8874 58.6168 57.9688 58.528 57.7652C58.4248 57.5281 58.4509 57.2547 58.5179 57.006C58.5557 56.8649 58.7186 56.8664 58.8467 56.8504C59.0387 56.8271 59.2336 56.8213 59.4213 56.7791C59.9116 56.6715 60.2753 56.398 60.4994 55.9384C60.7889 55.345 60.9765 54.7182 61.1337 54.0811C62.5594 48.2911 63.9808 42.501 65.4007 36.7109C65.5011 36.3037 65.5869 35.8935 65.5753 35.4703C65.5578 34.8943 65.3032 34.5714 64.746 34.4362C64.4944 34.3751 64.2398 34.3344 63.9793 34.3446C63.7291 34.3547 63.6244 34.2369 63.6389 33.994C63.6447 33.898 63.6433 33.8006 63.6389 33.7046C63.6331 33.4952 63.7233 33.3948 63.9401 33.3759C66.5108 33.1519 69.0713 32.8494 71.61 32.3811C71.9155 32.3243 71.965 32.3796 71.882 32.6836C71.6071 33.6886 71.3234 34.6922 71.0441 35.6957C71.0164 35.7975 70.9931 35.9008 70.9582 36.0404C71.1081 35.9779 71.1532 35.8659 71.2201 35.7786C72.1105 34.6107 73.0663 33.5126 74.316 32.7069C75.5177 31.9317 76.8212 31.7135 78.2077 31.9884C79.6436 32.272 80.6024 33.1417 81.1319 34.4929C81.5349 35.5226 81.5902 36.6033 81.5655 37.6926C81.5247 37.8701 81.5276 37.8774 81.628 37.8715L81.6368 37.8744ZM81.5742 37.6956C81.532 37.8119 81.5087 37.9283 81.5829 38.049C81.6004 37.9908 81.6178 37.9326 81.6353 37.8744C81.6149 37.8148 81.5931 37.7552 81.5727 37.6956H81.5742ZM69.8569 49.1099C70.2861 49.0415 70.6367 48.8132 70.9611 48.5427C71.5634 48.0409 72.0144 47.414 72.4174 46.7508C73.2089 45.4477 73.7515 44.0339 74.252 42.6042C74.831 40.9506 75.33 39.2722 75.4828 37.5152C75.541 36.8389 75.4755 36.18 75.0754 35.6026C74.7932 35.1954 74.4018 35.0252 73.9028 35.1038C73.2263 35.2099 72.72 35.5881 72.2909 36.0899C71.5518 36.9523 71.0921 37.969 70.6978 39.0176C69.8991 41.1425 69.4044 43.3576 68.8021 45.5407C68.597 46.2854 68.4035 47.0344 68.3584 47.6584C68.3395 48.771 68.904 49.2612 69.8584 49.1099H69.8569ZM93.5796 46.8119C93.8283 47.3006 94.2226 47.5406 94.7798 47.5144C95.2803 47.4897 95.6833 47.2584 96.0484 46.9443C96.7249 46.3596 97.2312 45.6396 97.6458 44.8572C98.9552 42.3861 99.7568 39.7419 100.279 37.0076C100.401 36.3662 100.49 35.7117 100.307 35.0601C100.057 34.1686 99.3407 33.8137 98.4824 34.1613C98.2714 34.2471 98.0808 34.3649 97.9033 34.5074C97.4873 34.842 97.1672 35.2594 96.8791 35.7015C95.6047 37.6592 94.646 39.7637 93.9607 41.9948C93.6159 43.1177 93.3599 44.2565 93.3235 45.436C93.3104 45.9145 93.3599 46.3828 93.5796 46.8163V46.8119ZM139.603 33.5199C139.281 33.5155 138.96 33.5592 138.645 33.6217C137.108 33.9286 135.975 34.8565 135.008 36.0186C133.807 37.4614 133.054 39.1398 132.482 40.9113C132.284 41.5251 132.287 41.5265 132.913 41.4567C132.987 41.448 133.063 41.4465 133.138 41.4392C135.528 41.1905 137.701 40.4153 139.493 38.7587C140.524 37.8061 141.195 36.6644 141.253 34.7154C141.266 34.1191 140.705 33.5359 139.603 33.5184V33.5199Z" fill="#172049"/>
<path d="M31.244 31.3848C31.2382 30.8816 31.196 30.1413 31.2556 29.3995C31.3357 28.3872 32.0674 27.6047 33.0713 27.4767C33.5848 27.4113 34.046 27.5771 34.4767 27.8462C35.7977 28.6737 37.123 29.4926 38.4353 30.3332C38.7263 30.5194 38.9779 30.5499 39.3067 30.4365C41.7931 29.5769 44.3405 28.9704 46.9592 28.697C49.7278 28.4076 52.4774 28.457 55.1703 29.2613C56.5437 29.6715 57.8225 30.2722 58.9064 31.2306C60.6464 32.7694 61.3971 34.7111 61.2196 37.0149C61.0435 39.3041 60.0804 41.2938 58.8191 43.1569C57.0529 45.7676 54.8023 47.9144 52.2781 49.7746C47.659 53.1823 42.5452 55.5327 36.947 56.8111C34.5378 57.3609 32.0965 57.6459 29.6233 57.5572C27.5254 57.4816 25.4726 57.1587 23.5435 56.273C21.9083 55.5225 20.5509 54.4549 19.726 52.8143C18.8226 51.0167 18.8357 49.1492 19.3667 47.2584C20.0053 44.9793 21.242 43.026 22.7419 41.2284C25.0231 38.4955 27.7626 36.2935 30.7886 34.442C31.1247 34.2369 31.2716 34.0188 31.2542 33.6217C31.2236 32.957 31.2455 32.2894 31.2455 31.3862L31.244 31.3848ZM46.1023 33.3948C45.4316 33.4937 44.7697 33.6362 44.1194 33.8282C44.0146 33.8588 43.8429 33.8399 43.8342 33.9809C43.8284 34.0828 43.9841 34.1191 44.0743 34.1715C46.0863 35.3307 48.1013 36.484 50.1104 37.6461C51.5347 38.4708 51.5638 40.2859 50.1613 41.1425C44.8962 44.3583 39.6253 47.5653 34.3603 50.7796C33.6794 51.1956 32.9854 51.2755 32.2828 50.8887C31.5655 50.4945 31.2644 49.84 31.26 49.0401C31.2556 48.0627 31.2571 47.0839 31.2571 46.1065C31.2571 44.8601 31.2556 43.6136 31.2513 42.3672C31.2513 42.2857 31.2833 42.1737 31.1858 42.1374C31.1043 42.1054 31.0578 42.1985 31.0127 42.2552C29.9026 43.6674 28.9555 45.1713 28.4347 46.9079C28.1612 47.8213 28.0186 48.755 28.1947 49.7077C28.5336 51.549 29.7411 52.5409 31.4753 52.9801C33.0524 53.3801 34.6352 53.2521 36.2079 52.9467C38.9532 52.4144 41.4817 51.3265 43.8604 49.8822C46.9097 48.0293 49.5503 45.7284 51.5114 42.7133C52.4047 41.3403 53.0783 39.8772 53.295 38.2293C53.5875 36.0055 52.4629 34.2326 50.317 33.5752C49.5401 33.3366 48.7428 33.2377 47.8787 33.2552C47.3156 33.2305 46.7075 33.3061 46.1008 33.3948H46.1023ZM33.6008 39.1151C33.6008 41.1673 33.6008 43.218 33.6008 45.2702C33.6008 45.4317 33.6052 45.5916 33.6096 45.7531C33.6387 47.1842 34.9378 47.5929 35.8922 46.9486C37.0052 46.1996 38.1778 45.5393 39.3257 44.8412C41.684 43.4042 44.0393 41.9628 46.4005 40.5317C46.9563 40.1943 47.2182 39.7274 47.1309 39.0787C47.0654 38.59 46.7599 38.2817 46.3584 38.0301C43.7556 36.3967 41.1573 34.7576 38.556 33.1199C37.6293 32.5352 36.7069 31.9433 35.7729 31.3688C34.8826 30.8219 33.8322 31.2408 33.6183 32.224C33.5761 32.4203 33.579 32.6298 33.579 32.8334C33.5761 34.9278 33.5776 37.0222 33.5776 39.1165H33.6023L33.6008 39.1151ZM43.9651 51.741C43.8255 51.7977 43.6858 51.853 43.5476 51.9111C39.8683 53.4514 36.0726 54.4215 32.0442 54.2077C30.4628 54.1233 28.9279 53.815 27.5065 53.0892C25.8073 52.2209 24.6798 50.909 24.3888 48.9703C24.3582 48.7652 24.3466 48.5587 24.3248 48.3332C24.2142 48.403 24.2186 48.4874 24.2011 48.5558C24.0644 49.1099 23.9756 49.6713 23.9465 50.2414C23.8272 52.5234 24.7758 54.4244 26.9057 55.4425C27.3727 55.6665 27.86 55.8323 28.3649 55.9486C30.1456 56.3588 31.9321 56.289 33.7129 55.9704C37.4402 55.3058 40.827 53.7844 44.0321 51.818C44.0655 51.7453 44.0292 51.7322 43.9666 51.741H43.9651ZM56.6121 35.6783C56.6994 33.2275 55.4002 31.2961 53.0899 30.4598C51.4459 29.8649 49.7481 29.8111 48.03 29.9973C45.8215 30.2372 43.7135 30.8583 41.6636 31.6917C41.489 31.7629 41.1951 31.7818 41.1791 31.9535C41.1588 32.1585 41.457 32.2094 41.6185 32.3185C41.8905 32.5003 42.1422 32.685 42.5321 32.5861C44.7115 32.0306 46.9272 31.7789 49.1764 31.9055C50.5803 31.984 51.9508 32.2385 53.2485 32.8043C54.6626 33.421 55.8061 34.3358 56.4593 35.7772C56.4797 35.8222 56.4928 35.8819 56.5626 35.8862C56.6354 35.8324 56.6092 35.751 56.6121 35.6812V35.6783ZM44.4089 51.5592C44.2081 51.5824 44.0888 51.6668 43.9651 51.741C43.987 51.7671 44.0088 51.7933 44.0306 51.818C44.1557 51.757 44.2852 51.7002 44.4089 51.5577V51.5592Z" fill="#172049"/>
<path d="M131.861 56.1566C132.617 56.4111 132.693 56.5275 132.753 57.2867C132.788 57.7346 132.783 58.1899 132.913 58.6277C132.978 58.8487 132.884 58.9113 132.674 58.92C132.063 58.9462 132.014 58.92 131.937 58.3164C131.889 57.9441 131.881 57.5674 131.838 57.1936C131.782 56.7311 131.545 56.4955 131.075 56.4766C129.975 56.4344 130.178 56.4053 130.162 57.2998C130.153 57.7288 130.15 58.1593 130.162 58.5884C130.17 58.9389 129.938 58.9171 129.705 58.9185C129.468 58.92 129.251 58.9302 129.252 58.584C129.26 56.9943 129.257 55.4046 129.255 53.815C129.255 53.6273 129.316 53.4993 129.53 53.5037C130.293 53.5183 131.056 53.4441 131.816 53.5517C132.527 53.6521 132.873 54.02 132.929 54.7094C132.991 55.473 132.741 55.8497 132.019 56.0853C131.982 56.097 131.947 56.1188 131.861 56.158V56.1566ZM130.163 54.9698C130.163 55.1734 130.163 55.3756 130.163 55.5792C130.163 55.7421 130.227 55.8526 130.4 55.8613C130.787 55.8832 131.174 55.8759 131.545 55.7566C131.918 55.6374 132.063 55.329 132.025 54.8127C131.998 54.4244 131.811 54.212 131.411 54.1495C131.18 54.1131 130.943 54.0942 130.709 54.0898C130.172 54.0797 130.163 54.0942 130.162 54.6164C130.162 54.7342 130.162 54.852 130.162 54.9698C130.162 54.9698 130.163 54.9698 130.165 54.9698H130.163Z" fill="#172049"/>
<path d="M119.956 56.1653C119.989 55.6199 119.915 55.0716 120.015 54.5277C120.097 54.0855 120.347 53.7903 120.76 53.6332C121.492 53.3554 122.231 53.3539 122.962 53.6332C123.399 53.8004 123.663 54.1277 123.708 54.5975C123.814 55.7101 123.817 56.8242 123.698 57.9354C123.65 58.3833 123.37 58.6815 122.951 58.8211C122.227 59.0626 121.494 59.0567 120.769 58.8211C120.343 58.683 120.114 58.3644 120.026 57.9281C119.908 57.342 119.988 56.7515 119.954 56.1624L119.956 56.1653ZM120.885 56.1741C120.885 56.6569 120.859 57.1413 120.893 57.6212C120.928 58.1186 121.275 58.3819 121.827 58.395C122.366 58.4081 122.772 58.1506 122.816 57.6809C122.908 56.7093 122.912 55.7305 122.816 54.7604C122.764 54.2208 122.361 53.9779 121.761 54.0259C121.181 54.0724 120.887 54.3604 120.872 54.9203C120.862 55.3378 120.871 55.7566 120.871 56.1741H120.884H120.885Z" fill="#172049"/>
<path d="M147.384 56.2671C147.384 56.7602 147.397 57.2532 147.381 57.7463C147.364 58.3019 147.076 58.6771 146.545 58.8429C145.849 59.0596 145.148 59.0451 144.453 58.8357C143.916 58.6742 143.686 58.2568 143.655 57.7405C143.594 56.7122 143.599 55.681 143.652 54.6527C143.68 54.1466 143.961 53.7961 144.445 53.6201C145.126 53.3714 145.81 53.367 146.498 53.5881C147.051 53.7655 147.342 54.148 147.387 54.724C147.426 55.2374 147.444 55.7523 147.387 56.2671H147.384ZM146.485 54.8302C146.418 54.2833 146.105 54.0186 145.52 54.0215C144.928 54.0259 144.588 54.2891 144.543 54.8185C144.461 55.7595 144.473 56.7035 144.553 57.6445C144.595 58.1317 144.966 58.4051 145.538 58.395C146.085 58.3862 146.433 58.1041 146.478 57.6241C146.518 57.1863 146.539 56.7471 146.53 56.51C146.52 55.8148 146.545 55.3218 146.485 54.8302Z" fill="#172049"/>
</g>
<defs>
<clipPath id="clip0_6258_3730">
<rect width="164" height="36" fill="white" transform="translate(19 23)"/>
</clipPath>
</defs>
</svg>
