<svg width="201" height="81" viewBox="0 0 201 81" fill="none" xmlns="http://www.w3.org/2000/svg">
<g clip-path="url(#clip0_6261_9328)">
<path d="M152.287 33.3492C145.267 33.7732 148.387 42.9795 156.186 42.483C163.773 41.9864 159.803 32.8526 152.287 33.3492Z" fill="#F29123"/>
<path d="M149.309 27.6848C136.758 27.6848 126.619 37.8095 126.619 50.3424C126.619 62.8753 136.758 73 149.309 73C161.861 73 172 62.8753 172 50.3424C172 37.8095 161.861 27.6848 149.309 27.6848ZM149.309 70.5941C138.105 70.5941 128.958 61.5306 128.958 50.2721C128.958 39.0136 138.035 29.9501 149.309 29.9501C160.584 29.9501 169.661 39.0136 169.661 50.2721C169.591 61.5306 160.514 70.5941 149.309 70.5941Z" fill="#F29123"/>
<path d="M148.599 11.8231C143.21 15.8594 144.132 22.161 144.132 22.161C144.132 22.161 140.728 13.381 136.331 8C135.764 14.9388 137.892 24.0726 137.892 24.0726C137.892 24.0726 135.126 18.4082 128.39 18.0544C133.992 21.2404 136.191 27.0476 136.686 28.6054C139.947 26.6235 143.705 25.4195 147.747 25.2766C147.322 23.8594 145.762 17.771 148.599 11.8231Z" fill="#F68B28"/>
<path d="M32.1642 52.5374V57.2812H30.1794V45.1021H34.3624C35.7817 45.1021 36.8445 45.4558 37.553 46.093C38.2615 46.7302 38.6158 47.6508 38.6158 48.8549C38.6158 49.9886 38.2615 50.9093 37.553 51.6168C36.8445 52.254 35.7795 52.6077 34.3624 52.6077H32.1642V52.5374ZM36.5606 48.8549C36.5606 48.1474 36.3472 47.6508 35.9929 47.2971C35.6386 46.9433 35.0005 46.7302 34.149 46.7302H32.1642V50.9796H34.149C35.7795 50.9796 36.5606 50.2721 36.5606 48.8549Z" fill="#221E20"/>
<path d="M46.7727 57.2812L43.7229 52.3946H42.3037V57.2812H40.3189V45.1021H44.6449C46.0642 45.1021 47.127 45.4558 47.8355 46.093C48.544 46.8005 48.8983 47.6508 48.8983 48.7846C48.8983 49.7755 48.6144 50.5555 48.1193 51.1202C47.5516 51.7574 46.7727 52.1111 45.7803 52.3243L48.9709 57.2812H46.7727ZM42.3059 51.0499H44.5041C46.0642 51.0499 46.9157 50.3424 46.9157 48.9252C46.9157 48.288 46.7023 47.7211 46.348 47.3674C45.9938 47.0136 45.3556 46.8005 44.5041 46.8005H42.3059V51.0499Z" fill="#221E20"/>
<path d="M57.9772 54.6621H52.8018L51.8799 57.2812H49.7521L54.2893 45.2449H56.5579L61.0248 57.2812H58.897L57.975 54.6621H57.9772ZM57.4095 53.1043L55.3521 47.3696L53.2947 53.1043H57.4073H57.4095Z" fill="#221E20"/>
<path d="M71.0234 46.0227C72.0158 46.7302 72.6539 47.7211 72.9378 48.9252H70.8804C70.5965 48.288 70.1719 47.7211 69.6041 47.3674C68.966 46.9433 68.2575 46.8005 67.4764 46.8005C66.6952 46.8005 66.0571 47.0136 65.419 47.3674C64.7809 47.7211 64.3562 48.2177 63.9997 48.9252C63.6454 49.5624 63.5024 50.3424 63.5024 51.2608C63.5024 52.1793 63.6432 53.0318 63.9997 53.669C64.354 54.3062 64.8513 54.873 65.4894 55.2268C66.1275 55.5805 66.836 55.7234 67.6876 55.7234C68.68 55.7234 69.602 55.4399 70.3105 54.8027C71.019 54.1655 71.4459 53.3152 71.6571 52.1836H67.0473V50.6961H73.2172V52.6077C73.0764 53.5283 72.7925 54.3062 72.2248 55.0862C71.7275 55.7937 71.0894 56.4309 70.2401 56.8571C69.3885 57.2812 68.4665 57.4943 67.4037 57.4943C66.1979 57.4943 65.1351 57.2109 64.2132 56.7165C63.2912 56.2199 62.5827 55.4421 62.0854 54.5215C61.6607 53.4602 61.3768 52.3968 61.3768 51.1927C61.3768 49.9886 61.6607 48.9274 62.1558 47.9364C62.6531 47.0158 63.3616 46.238 64.2836 45.7414C65.2055 45.2449 66.2683 44.9636 67.4037 44.9636C68.823 44.9636 70.0266 45.3174 71.0212 46.0249L71.0234 46.0227Z" fill="#221E20"/>
<path d="M87.1215 45.2449V57.2812H85.1368V48.288L81.6623 57.2812H79.9614L76.487 48.288V57.2812H74.5022V45.2449H76.9138L80.8856 54.8752L84.7847 45.2449H87.1237H87.1215Z" fill="#221E20"/>
<path d="M96.8341 54.6621H91.6588L90.7368 57.2812H88.609L93.1462 45.2449H95.4149L99.8817 57.2812H97.7539L96.8319 54.6621H96.8341ZM96.2686 53.1043L94.2112 47.3696L92.1539 53.1043H96.2664H96.2686Z" fill="#221E20"/>
<path d="M108.322 45.1021V46.6599H104.918V57.2812H102.934V46.6599H99.5297V45.1021H108.322Z" fill="#221E20"/>
<path d="M111.372 45.1021V57.3515H109.387V45.1021H111.372Z" fill="#221E20"/>
<path d="M121.796 45.8821C122.788 46.6599 123.426 47.653 123.78 48.9977H121.653C121.369 48.2902 120.874 47.653 120.306 47.2268C119.668 46.8027 118.887 46.5896 117.967 46.5896C117.258 46.5896 116.62 46.8027 115.982 47.1565C115.414 47.5102 114.99 48.0068 114.635 48.7143C114.281 49.3515 114.138 50.1315 114.138 51.0499C114.138 51.9002 114.279 52.678 114.635 53.3855C114.99 54.0227 115.414 54.5896 115.982 54.9434C116.55 55.2971 117.188 55.5102 117.967 55.5102C118.889 55.5102 119.668 55.2971 120.306 54.8731C120.944 54.449 121.369 53.8821 121.653 53.1021H123.78C123.426 54.3765 122.788 55.4377 121.796 56.2177C120.803 56.9956 119.527 57.3515 118.037 57.3515C116.902 57.3515 115.839 57.0681 114.987 56.5737C114.065 56.0771 113.427 55.2993 112.93 54.3787C112.433 53.458 112.222 52.3968 112.222 51.1224C112.222 49.848 112.435 48.8571 112.93 47.8662C113.427 46.9455 114.136 46.1677 114.987 45.6711C115.909 45.1746 116.902 44.8933 118.037 44.8933C119.527 44.7527 120.803 45.1065 121.796 45.8843V45.8821Z" fill="#221E20"/>
<path d="M133.922 52.5374V57.2812H131.937V45.1021H136.12C137.539 45.1021 138.602 45.4558 139.311 46.093C140.019 46.7302 140.374 47.6508 140.374 48.8549C140.374 49.9886 140.019 50.9093 139.311 51.6168C138.602 52.3243 137.537 52.6077 136.12 52.6077H133.922V52.5374ZM138.318 48.8549C138.318 48.1474 138.105 47.6508 137.751 47.2971C137.396 46.9433 136.758 46.7302 135.907 46.7302H133.922V50.9796H135.907C137.537 50.9796 138.318 50.2721 138.318 48.8549Z" fill="#221E20"/>
<path d="M143.707 55.7937H147.963V57.3515H141.722V45.1021H143.707V55.7937Z" fill="#221E20"/>
<path d="M157.037 54.6621H151.862L150.94 57.2812H148.812L153.349 45.2449H155.618L160.085 57.2812H157.957L157.035 54.6621H157.037ZM156.47 53.1043L154.412 47.3696L152.355 53.1043H156.467H156.47Z" fill="#221E20"/>
<path d="M168.028 45.1021L163.986 52.8912V57.3515H162.001V52.8912L157.889 45.1021H160.157L162.994 50.7665L165.83 45.1021H168.028Z" fill="#221E20"/>
<path d="M124.546 59.1752H29V60.0013H124.546V59.1752Z" fill="#1C1D1D"/>
<path d="M36.7168 62.6358H39.0206V70.7039H43.5689V72.5781H36.7146V62.6336L36.7168 62.6358Z" fill="url(#paint0_linear_6261_9328)"/>
<path d="M44.3148 62.6358H46.3986V72.5803H44.3148V62.6358Z" fill="url(#paint1_linear_6261_9328)"/>
<path d="M57.1102 62.6358L53.0724 72.5803H50.9403L46.9157 62.6358H49.2481L52.0867 69.7393L54.9648 62.6358H57.1102Z" fill="url(#paint2_linear_6261_9328)"/>
<path d="M65.0405 70.7325V72.5781H57.9904V62.6336H64.8556V64.4792H60.369V66.6391H64.2439V68.4298H60.369V70.7303H65.0405V70.7325Z" fill="url(#paint3_linear_6261_9328)"/>
<path d="M69.0694 67.6081C69.0694 64.6111 71.3732 62.4666 74.4758 62.4666C76.1965 62.4666 77.6334 63.0906 78.573 64.2287L77.0943 65.5932C76.4254 64.8264 75.587 64.4287 74.5902 64.4287C72.7265 64.4287 71.404 65.736 71.404 67.6102C71.404 69.4845 72.7265 70.7918 74.5902 70.7918C75.587 70.7918 76.4254 70.3941 77.0943 69.6119L78.573 70.9764C77.6334 72.1277 76.1965 72.7517 74.4626 72.7517C71.3754 72.7517 69.0716 70.6072 69.0716 67.6102L69.0694 67.6081Z" fill="url(#paint4_linear_6261_9328)"/>
<path d="M85.0619 70.0535H81.341L80.6303 72.0772H78.7291L82.3026 62.6358H84.1355L87.72 72.0772H85.7726L85.0619 70.0535ZM84.4788 68.3947L83.207 64.7803L81.9351 68.3947H84.4766H84.4788Z" fill="url(#paint5_linear_6261_9328)"/>
<path d="M87.9819 71.1126L88.7234 69.4713C89.5178 70.0491 90.7038 70.4534 91.8348 70.4534C93.1286 70.4534 93.6523 70.0228 93.6523 69.4449C93.6523 67.6828 88.1711 68.8934 88.1711 65.3977C88.1711 63.7981 89.4649 62.4666 92.145 62.4666C93.3311 62.4666 94.5435 62.75 95.417 63.3015L94.7437 64.956C93.868 64.4573 92.9658 64.2156 92.1318 64.2156C90.838 64.2156 90.3407 64.6989 90.3407 65.2922C90.3407 67.028 95.8219 65.8305 95.8219 69.2867C95.8219 70.8599 94.5149 72.2046 91.8216 72.2046C90.3275 72.2046 88.818 71.7608 87.9841 71.1148L87.9819 71.1126Z" fill="url(#paint6_linear_6261_9328)"/>
<path d="M96.2686 62.6358H98.5724V72.5803H96.2686V62.6358Z" fill="url(#paint7_linear_6261_9328)"/>
<path d="M108.925 62.6358V72.5803H107.033L102.069 66.5424V72.5803H99.7936V62.6358H101.699L106.65 68.6737V62.6358H108.925Z" fill="url(#paint8_linear_6261_9328)"/>
<path d="M109.665 67.6081C109.665 64.6528 111.969 62.4666 115.113 62.4666C118.257 62.4666 120.561 64.6396 120.561 67.6081C120.561 70.5765 118.242 72.7495 115.113 72.7495C111.984 72.7495 109.665 70.5611 109.665 67.6081ZM118.229 67.6081C118.229 65.7185 116.891 64.4265 115.113 64.4265C113.335 64.4265 111.997 65.7185 111.997 67.6081C111.997 69.4977 113.335 70.7896 115.113 70.7896C116.891 70.7896 118.229 69.4977 118.229 67.6081Z" fill="url(#paint9_linear_6261_9328)"/>
</g>
<defs>
<linearGradient id="paint0_linear_6261_9328" x1="40.145" y1="62.6358" x2="40.145" y2="72.5781" gradientUnits="userSpaceOnUse">
<stop stop-color="#E5DEC4"/>
<stop offset="0.04" stop-color="#E0D5B4"/>
<stop offset="0.13" stop-color="#D5BE8C"/>
<stop offset="0.25" stop-color="#C3994B"/>
<stop offset="0.3" stop-color="#BB872C"/>
<stop offset="0.5" stop-color="#CE942A"/>
<stop offset="0.55" stop-color="#F8C531"/>
<stop offset="1" stop-color="#BF822B"/>
</linearGradient>
<linearGradient id="paint1_linear_6261_9328" x1="45.3556" y1="7.99999" x2="45.3556" y2="7.99999" gradientUnits="userSpaceOnUse">
<stop stop-color="#E5DEC4"/>
<stop offset="0.04" stop-color="#E0D5B4"/>
<stop offset="0.13" stop-color="#D5BE8C"/>
<stop offset="0.25" stop-color="#C3994B"/>
<stop offset="0.3" stop-color="#BB872C"/>
<stop offset="0.5" stop-color="#CE942A"/>
<stop offset="0.55" stop-color="#F8C531"/>
<stop offset="1" stop-color="#BF822B"/>
</linearGradient>
<linearGradient id="paint2_linear_6261_9328" x1="52.0119" y1="7.99999" x2="52.0119" y2="7.99999" gradientUnits="userSpaceOnUse">
<stop stop-color="#E5DEC4"/>
<stop offset="0.04" stop-color="#E0D5B4"/>
<stop offset="0.13" stop-color="#D5BE8C"/>
<stop offset="0.25" stop-color="#C3994B"/>
<stop offset="0.3" stop-color="#BB872C"/>
<stop offset="0.5" stop-color="#CE942A"/>
<stop offset="0.55" stop-color="#F8C531"/>
<stop offset="1" stop-color="#BF822B"/>
</linearGradient>
<linearGradient id="paint3_linear_6261_9328" x1="61.5154" y1="7.99999" x2="61.5154" y2="7.99999" gradientUnits="userSpaceOnUse">
<stop stop-color="#E5DEC4"/>
<stop offset="0.04" stop-color="#E0D5B4"/>
<stop offset="0.13" stop-color="#D5BE8C"/>
<stop offset="0.25" stop-color="#C3994B"/>
<stop offset="0.3" stop-color="#BB872C"/>
<stop offset="0.5" stop-color="#CE942A"/>
<stop offset="0.55" stop-color="#F8C531"/>
<stop offset="1" stop-color="#BF822B"/>
</linearGradient>
<linearGradient id="paint4_linear_6261_9328" x1="73.8223" y1="62.4644" x2="73.8223" y2="72.7495" gradientUnits="userSpaceOnUse">
<stop stop-color="#E5DEC4"/>
<stop offset="0.04" stop-color="#E0D5B4"/>
<stop offset="0.13" stop-color="#D5BE8C"/>
<stop offset="0.25" stop-color="#C3994B"/>
<stop offset="0.3" stop-color="#BB872C"/>
<stop offset="0.5" stop-color="#CE942A"/>
<stop offset="0.55" stop-color="#F8C531"/>
<stop offset="1" stop-color="#BF822B"/>
</linearGradient>
<linearGradient id="paint5_linear_6261_9328" x1="83.2246" y1="7.99999" x2="83.2246" y2="72.0772" gradientUnits="userSpaceOnUse">
<stop stop-color="#E5DEC4"/>
<stop offset="0.04" stop-color="#E0D5B4"/>
<stop offset="0.13" stop-color="#D5BE8C"/>
<stop offset="0.25" stop-color="#C3994B"/>
<stop offset="0.3" stop-color="#BB872C"/>
<stop offset="0.5" stop-color="#CE942A"/>
<stop offset="0.55" stop-color="#F8C531"/>
<stop offset="1" stop-color="#BF822B"/>
</linearGradient>
<linearGradient id="paint6_linear_6261_9328" x1="91.9008" y1="62.4644" x2="91.9008" y2="72.2024" gradientUnits="userSpaceOnUse">
<stop stop-color="#E5DEC4"/>
<stop offset="0.04" stop-color="#E0D5B4"/>
<stop offset="0.13" stop-color="#D5BE8C"/>
<stop offset="0.25" stop-color="#C3994B"/>
<stop offset="0.3" stop-color="#BB872C"/>
<stop offset="0.5" stop-color="#CE942A"/>
<stop offset="0.55" stop-color="#F8C531"/>
<stop offset="1" stop-color="#BF822B"/>
</linearGradient>
<linearGradient id="paint7_linear_6261_9328" x1="97.4194" y1="7.99999" x2="97.4194" y2="7.99999" gradientUnits="userSpaceOnUse">
<stop stop-color="#E5DEC4"/>
<stop offset="0.04" stop-color="#E0D5B4"/>
<stop offset="0.13" stop-color="#D5BE8C"/>
<stop offset="0.25" stop-color="#C3994B"/>
<stop offset="0.3" stop-color="#BB872C"/>
<stop offset="0.5" stop-color="#CE942A"/>
<stop offset="0.55" stop-color="#F8C531"/>
<stop offset="1" stop-color="#BF822B"/>
</linearGradient>
<linearGradient id="paint8_linear_6261_9328" x1="104.359" y1="7.99999" x2="104.359" y2="7.99999" gradientUnits="userSpaceOnUse">
<stop stop-color="#E5DEC4"/>
<stop offset="0.04" stop-color="#E0D5B4"/>
<stop offset="0.13" stop-color="#D5BE8C"/>
<stop offset="0.25" stop-color="#C3994B"/>
<stop offset="0.3" stop-color="#BB872C"/>
<stop offset="0.5" stop-color="#CE942A"/>
<stop offset="0.55" stop-color="#F8C531"/>
<stop offset="1" stop-color="#BF822B"/>
</linearGradient>
<linearGradient id="paint9_linear_6261_9328" x1="115.113" y1="62.4644" x2="115.113" y2="72.7495" gradientUnits="userSpaceOnUse">
<stop stop-color="#E5DEC4"/>
<stop offset="0.04" stop-color="#E0D5B4"/>
<stop offset="0.13" stop-color="#D5BE8C"/>
<stop offset="0.25" stop-color="#C3994B"/>
<stop offset="0.3" stop-color="#BB872C"/>
<stop offset="0.5" stop-color="#CE942A"/>
<stop offset="0.55" stop-color="#F8C531"/>
<stop offset="1" stop-color="#BF822B"/>
</linearGradient>
<clipPath id="clip0_6261_9328">
<rect width="143" height="65" fill="white" transform="translate(29 8)"/>
</clipPath>
</defs>
</svg>
