<svg width="201" height="81" viewBox="0 0 201 81" fill="none" xmlns="http://www.w3.org/2000/svg">
<path d="M60.1656 55.8568C56.1008 59.8737 50.5278 62.3683 44.3662 62.3683C32.0062 62.3683 21.927 52.3351 21.927 39.9908C21.927 36.9644 22.5339 34.0847 23.6191 31.4617L29.7623 47.1993V47.2176H29.7807H29.7991V47.1993L34.5812 34.9651L39.3633 47.1993V47.2176H39.3817H39.4001V47.1993L47.8056 25.794H43.8696L39.4185 37.1662L34.6548 24.9686H34.5812L29.7991 37.1662L24.3916 23.3178C23.4536 24.4367 22.6075 25.6473 21.8534 26.9129C19.5911 30.7647 18.3036 35.2402 18.3036 40.0092C18.3036 54.3527 30.0014 66 44.3662 66C50.9508 66 56.9836 63.5422 61.5818 59.5069L60.1656 55.8568Z" fill="black"/>
<path d="M44.3662 14C37.6344 14 31.4728 16.5679 26.8378 20.7683L28.2725 24.4367C32.3557 20.2547 38.0574 17.6317 44.3662 17.6317C56.7261 17.6317 66.8054 27.6649 66.8054 40.0092C66.8054 43.1457 66.1432 46.1355 64.9661 48.8501L58.8413 33.2226V33.2042H58.8229H58.8045V33.2226L54.0224 45.4568L49.2402 33.2226V33.2042H49.2219H49.2035V33.2226L40.8715 54.5362H44.8076L49.2219 43.2191L53.9856 55.3616H54.0592L58.8229 43.2007L64.1384 56.9206C65.0948 55.8018 65.9777 54.6095 66.7502 53.3256C69.1045 49.4187 70.4655 44.8515 70.4655 39.9725C70.4471 25.6656 58.7493 14 44.3662 14Z" fill="#0078FF"/>
<path d="M97.7792 30.8931V33.9012C95.6824 32.8741 93.7511 32.3605 91.9854 32.3605C89.7231 32.3605 87.8103 33.0942 86.2653 34.5432C84.7203 35.9922 83.9478 37.7898 83.9478 39.9175C83.9478 42.0818 84.7387 43.8794 86.3204 45.3284C87.9022 46.7774 89.8886 47.4928 92.2797 47.4928C94.0086 47.4928 95.8479 46.9425 97.7791 45.8603V48.9051C96.0134 49.8406 94.1006 50.3175 92.0406 50.3175C89.0242 50.3175 86.4492 49.2903 84.2972 47.2543C82.1637 45.2183 81.0785 42.7605 81.0785 39.8808C81.0785 37.0561 82.1269 34.6349 84.242 32.6173C86.3388 30.5997 88.877 29.5909 91.8567 29.5909C93.7695 29.6092 95.7375 30.031 97.7792 30.8931Z" fill="#0078FF"/>
<path d="M108.208 29.4624L117.404 49.6388H114.609L112.346 44.6864H104.07L101.826 49.6571H99.0483L108.208 29.4624ZM108.189 35.5337L105.081 42.467H111.353L108.189 35.5337Z" fill="#0078FF"/>
<path d="M131.751 32.3788L129.599 34.103C129.029 33.516 128.514 33.0758 128.054 32.7824C127.594 32.4889 126.913 32.3422 126.049 32.3422C125.092 32.3422 124.32 32.5623 123.713 32.9841C123.124 33.406 122.812 33.9746 122.812 34.6533C122.812 35.2402 123.069 35.7538 123.584 36.2123C124.099 36.6709 124.982 37.1661 126.233 37.6981C127.484 38.23 128.458 38.7252 129.157 39.2021C129.856 39.6607 130.426 40.1742 130.868 40.7428C131.309 41.2931 131.64 41.8984 131.861 42.5037C132.082 43.1273 132.192 43.7877 132.192 44.4663C132.192 46.0804 131.604 47.4561 130.426 48.5933C129.249 49.7305 127.815 50.2991 126.159 50.2991C124.522 50.2991 123.088 49.8589 121.837 48.9601C120.586 48.0614 119.63 46.7407 118.949 44.9615L121.616 44.2095C122.591 46.3922 124.062 47.4928 126.067 47.4928C127.042 47.4928 127.833 47.1993 128.477 46.6307C129.12 46.0621 129.433 45.3284 129.433 44.448C129.433 43.916 129.268 43.3841 128.937 42.8522C128.606 42.3203 128.182 41.8801 127.686 41.5316C127.189 41.1831 126.398 40.7979 125.295 40.3393C124.21 39.8991 123.364 39.4772 122.775 39.1104C122.186 38.7436 121.671 38.3034 121.248 37.7898C120.825 37.2762 120.513 36.7626 120.31 36.249C120.108 35.7355 120.016 35.2035 120.016 34.6166C120.016 33.2226 120.568 32.0303 121.69 31.0582C122.812 30.0861 124.173 29.5908 125.773 29.5908C126.84 29.5908 127.907 29.8109 128.992 30.2695C130.114 30.7464 131.033 31.4434 131.751 32.3788Z" fill="#0078FF"/>
<path d="M135.466 30.2145H138.096V49.6388H135.466V30.2145Z" fill="#0078FF"/>
<path d="M142.234 29.4441L156.636 44.2095V30.2145H159.303V50.5559L144.901 35.8455V49.6571H142.234V29.4441Z" fill="#0078FF"/>
<path d="M162.467 39.8257C162.467 37.0194 163.533 34.6166 165.649 32.6173C167.764 30.618 170.32 29.6092 173.3 29.6092C176.206 29.6092 178.707 30.618 180.804 32.6356C182.901 34.6533 183.949 37.0561 183.949 39.8257C183.949 42.7605 182.919 45.2367 180.841 47.2727C178.763 49.3086 176.224 50.3175 173.208 50.3175C170.228 50.3175 167.69 49.2903 165.612 47.2543C163.515 45.2 162.467 42.7238 162.467 39.8257ZM181.117 39.9358C181.117 37.7898 180.344 35.9922 178.799 34.5249C177.254 33.0575 175.342 32.3238 173.079 32.3238C170.927 32.3238 169.088 33.0758 167.543 34.5615C166.016 36.0473 165.244 37.8448 165.244 39.9358C165.244 42.0635 166.035 43.861 167.598 45.3284C169.18 46.7958 171.111 47.5295 173.392 47.5295C175.489 47.5295 177.31 46.7774 178.836 45.2734C180.363 43.7877 181.117 42.0085 181.117 39.9358Z" fill="#0078FF"/>
</svg>
